<?xml version="1.0" encoding="UTF-8"?>
<!DOCTYPE svg PUBLIC "-//W3C//DTD SVG 1.1//EN" "http://www.w3.org/Graphics/SVG/1.1/DTD/svg11.dtd">
<!-- Creator: CorelDRAW -->
<svg xmlns="http://www.w3.org/2000/svg" xml:space="preserve" width="43.094mm" height="50mm" version="1.1" style="shape-rendering:geometricPrecision; text-rendering:geometricPrecision; image-rendering:optimizeQuality; fill-rule:evenodd; clip-rule:evenodd"
viewBox="0 0 357.07 414.29"
 xmlns:xlink="http://www.w3.org/1999/xlink"
 xmlns:xodm="http://www.corel.com/coreldraw/odm/2003">
 <defs>
  <style type="text/css">
   <![CDATA[
    .fil0 {fill:gray}
   ]]>
  </style>
 </defs>
 <g id="Camada_x0020_1">
  <metadata id="CorelCorpID_0Corel-Layer"/>
  <g id="_2135887566560">
   <path class="fil0" d="M138.13 209.09c13.97,-5.14 29.51,-4.59 36.31,11.58 3.65,8.68 2.12,14.39 -0.45,20.18 -2.57,5.79 -5.78,10.57 -11.7,15.74 -20.78,18.12 -45.39,20.03 -51.41,-8.14 -1.32,-6.2 -0.74,-16.53 2.03,-19.63 2.11,0.4 4.02,1.14 6.83,1.01 3.44,-0.15 4.85,-1.11 7.95,-1.64 4.77,11.91 11.7,22.61 24.2,24.26 3.11,0.41 9.56,0.59 11.64,-2.63 -1.5,-3.6 -5.49,0.49 -12.85,-2.93 -3.42,-1.59 -7.88,-4.9 -10.12,-10.01 -5.58,-12.72 6.93,-21.76 -2.42,-27.8zm-107.16 -41.74c1.26,-0.26 0.38,-0.14 1.35,-0.15 0.1,-0 0.37,0.19 0.4,0.07 0.02,-0.12 0.25,0.07 0.38,0.11 4.66,-0.31 8.51,3.46 10.48,8.95 -1.02,1.22 -1.44,1.09 -2.76,2.1 -3.42,2.61 -10.55,13.5 -10.12,17.41 -2.44,1.77 -16.4,12.12 -18.05,14.19 -1.49,1.86 -0.59,1.46 -1.17,3.01 -0.35,0.94 -1.41,1.52 -2.47,2.46 -11.87,10.48 -1.23,12.88 -0.41,27.98 0.59,10.85 -0.05,17.09 -2.29,27.22 -3.58,16.18 -6.23,36.92 -6.32,53.79 -0.07,14.21 4.47,41.84 5.67,58.66 0.43,5.95 0.87,15.39 -0.07,21.21 -0.45,2.76 -2.03,3.79 -0.34,6.79 4.32,2.82 15.49,3.41 22.37,3.04 19.82,-1.06 48.12,-8.4 63.19,-22.3 4.31,-3.98 4.31,-4.61 6.35,-8.81 -1.93,-4.79 -8.64,-12.32 -7.39,-22.94 0.91,-7.75 2.37,-11.59 -0.9,-21.24 -3.38,-9.98 -7.27,-13.37 -6.58,-23.53 0.46,-6.82 -0.9,-14.85 -3.56,-22.17 -0.25,-0.93 -0.27,-0.36 -0.37,-1.34 -0.22,-2.26 -0.05,-0.63 0.13,-1.5l0.21 -3.81 0.35 -1.64c0.82,-1.38 1.08,-2.78 1.77,-4.26 3.54,-7.59 12.59,-13.11 21.54,-14.32 9.3,-1.26 4.19,1.79 10,-1.14 3.33,2.51 5.5,7.69 15.18,10.1 18.82,4.69 42.46,-12.85 50.27,-27.67 2.52,-4.79 4.56,-10.46 4.62,-17.26 0.02,-2.63 -2.41,-15.75 -3.07,-20.42 -0.5,-3.51 0.87,-6.4 2.19,-8.8 1.94,-3.54 3.18,-4.21 8.01,-6.17 6.22,-2.52 17.2,-6.32 22.58,-9.44 -2.55,-7.39 -5.49,-14.84 -8.26,-22.16 -3.6,-9.52 -4.09,-11.67 0.06,-18.79l-5.16 -12.15c3.09,-4.19 31.64,-14.06 38.5,-16.68 13.39,-5.12 26.97,-10.21 40.28,-15.8 16.94,-7.12 65.56,-27.29 79.14,-34.91 0.32,-1.22 0.56,-2.6 0.01,-4.32 -2.41,-7.49 1.3,-0.21 -2.74,-9.72 -2.13,-5.02 2.46,-3.31 -7.01,-23.7 -5.61,-12.07 -9,-7.91 -10.59,-13.97 -0.94,-3.6 -2.13,-4.57 -4.72,-8.49 -1.92,-2.92 -3.56,-3.58 -6.17,-4.62l-3.39 1.11c-3.36,2.22 -9.03,9.24 -11.83,12.46 -1.59,1.83 -3.89,5.11 -6.02,6.1 -15.83,7.4 -11.82,2.89 -26.66,15.3 -4.58,3.83 -10.98,7.86 -16.91,10.38 -27.78,11.82 -55.86,23.06 -83.61,34.93 -1.79,-0.54 -0.67,-1.19 -2.89,-0.67 -2.37,0.56 -8.08,3.73 -11.67,4.35 -9.97,1.72 -9.59,3.77 -14.85,4.92 -9.14,1.99 -21.06,7.81 -30.3,11.52 -10.4,4.18 -20.84,8.43 -31.2,12.73 -10.07,4.18 -9.55,0.3 -13.08,0.82 -1.91,0.28 -12,5.49 -14.91,6.62 -1,-0.3 -2.6,-0.86 -3.77,-1.34 -0.95,-2.1 -0.45,-2.42 -2.38,-2.7 -0.77,1.03 -1.35,-0.46 0.33,3.81 -2.51,2.31 -4,2.76 -3.63,6.19 0.78,7.2 7.29,5.54 7.28,13 -0,1.72 -0.3,5.09 -0.77,7.01 -6.39,2.21 -9.15,-0.61 -8.96,8.15 0.06,2.94 0.05,3.98 -2.28,5.63 -7.47,5.29 -4.08,-2.85 -19.41,-0.09 -2.5,0.45 -5.14,1.1 -7.66,2.1 -10.06,4 -2.68,8.58 3.8,6.71 4.44,-1.28 5.88,-1.82 10.22,-1.89z"/>
   <path class="fil0" d="M138.13 209.09c9.34,6.04 -3.17,15.08 2.42,27.8 2.24,5.1 6.7,8.42 10.12,10.01 7.36,3.41 11.35,-0.67 12.85,2.93 -2.07,3.21 -8.52,3.04 -11.64,2.63 -12.49,-1.65 -19.42,-12.35 -24.2,-24.26 -3.1,0.53 -4.51,1.49 -7.95,1.64 -2.81,0.12 -4.72,-0.61 -6.83,-1.01 -2.77,3.1 -3.36,13.43 -2.03,19.63 6.02,28.17 30.63,26.26 51.41,8.14 5.92,-5.16 9.13,-9.94 11.7,-15.74 2.57,-5.79 4.1,-11.5 0.45,-20.18 -6.79,-16.17 -22.34,-16.72 -36.31,-11.58z"/>
   <path class="fil0" d="M325.51 0.22c-0.14,-0.03 -0.38,-0.23 -0.4,-0.11 -0.03,0.19 -1.98,-0.9 -2.99,1.22l3.39 -1.11z"/>
   <path class="fil0" d="M78.74 293.21l-0.24 -2.84c-0.18,0.87 -0.35,-0.76 -0.13,1.5 0.1,0.98 0.11,0.41 0.37,1.34z"/>
   <path class="fil0" d="M33.11 167.37c-0.13,-0.03 -0.36,-0.23 -0.38,-0.11 -0.02,0.12 -0.3,-0.07 -0.4,-0.07 -0.97,0.02 -0.1,-0.1 -1.35,0.15 0.35,0.07 0.45,0.13 1.23,0.15 1.01,0.03 -1.76,0.34 0.91,-0.13z"/>
   <path class="fil0" d="M78.72 286.57c0.42,-0.71 0.5,0.01 0.35,-1.64l-0.35 1.64z"/>
  </g>
 </g>
</svg>
