<?xml version="1.0" encoding="UTF-8"?>
<!DOCTYPE svg PUBLIC "-//W3C//DTD SVG 1.1//EN" "http://www.w3.org/Graphics/SVG/1.1/DTD/svg11.dtd">
<!-- Creator: CorelDRAW -->
<svg xmlns="http://www.w3.org/2000/svg" xml:space="preserve" width="43.0914mm" height="49.9729mm" version="1.1" style="shape-rendering:geometricPrecision; text-rendering:geometricPrecision; image-rendering:optimizeQuality; fill-rule:evenodd; clip-rule:evenodd"
viewBox="0 0 247.36 286.86"
 xmlns:xlink="http://www.w3.org/1999/xlink"
 xmlns:xodm="http://www.corel.com/coreldraw/odm/2003">
 <defs>
  <style type="text/css">
   <![CDATA[
    .fil0 {fill:gray}
   ]]>
  </style>
 </defs>
 <g id="Camada_x0020_1">
  <metadata id="CorelCorpID_0Corel-Layer"/>
  <path class="fil0" d="M95.7 144.7c9.68,-3.56 20.44,-3.18 25.16,8.02 2.53,6.01 1.47,9.97 -0.31,13.98 -1.78,4.01 -4,7.32 -8.11,10.9 -14.4,12.55 -31.45,13.88 -35.62,-5.64 -0.91,-4.3 -0.51,-11.45 1.41,-13.6 1.46,0.28 2.79,0.79 4.73,0.7 2.38,-0.1 3.36,-0.77 5.51,-1.14 3.3,8.25 8.11,15.66 16.77,16.81 2.15,0.28 6.62,0.41 8.06,-1.82 -1.04,-2.49 -3.8,0.34 -8.9,-2.03 -2.37,-1.1 -5.46,-3.39 -7.01,-6.93 -3.87,-8.81 4.8,-15.08 -1.68,-19.26l-0.01 0.01zm-74.24 -28.92c0.87,-0.18 0.26,-0.1 0.94,-0.1 0.07,0 0.26,0.13 0.28,0.05 0.01,-0.08 0.17,0.05 0.26,0.08 3.23,-0.21 5.9,2.4 7.26,6.2 -0.71,0.84 -1,0.75 -1.91,1.45 -2.37,1.81 -7.31,9.35 -7.01,12.06 -1.69,1.23 -11.36,8.4 -12.5,9.83 -1.03,1.29 -0.41,1.01 -0.81,2.09 -0.24,0.65 -0.98,1.05 -1.71,1.7 -8.22,7.26 -0.85,8.92 -0.28,19.38 0.41,7.52 -0.03,11.84 -1.59,18.86 -2.48,11.21 -4.32,25.58 -4.38,37.27 -0.05,9.84 3.1,28.99 3.93,40.64 0.3,4.12 0.6,10.66 -0.05,14.69 -0.31,1.91 -1.41,2.63 -0.24,4.7 2.99,1.95 10.73,2.36 15.5,2.11 13.73,-0.73 33.34,-5.82 43.78,-15.45 2.99,-2.76 2.99,-3.19 4.4,-6.1 -1.34,-3.32 -5.99,-8.54 -5.12,-15.89 0.63,-5.37 1.64,-8.03 -0.62,-14.71 -2.34,-6.91 -5.04,-9.26 -4.56,-16.3 0.32,-4.72 -0.62,-10.29 -2.47,-15.36 -0.17,-0.64 -0.19,-0.25 -0.26,-0.93 -0.15,-1.57 -0.03,-0.44 0.09,-1.04l0.15 -2.64 0.24 -1.14c0.57,-0.96 0.75,-1.93 1.23,-2.95 2.45,-5.26 8.72,-9.08 14.92,-9.92 6.44,-0.87 2.9,1.24 6.93,-0.79 2.31,1.74 3.81,5.33 10.52,7 13.04,3.25 29.42,-8.9 34.83,-19.17 1.75,-3.32 3.16,-7.25 3.2,-11.96 0.01,-1.82 -1.67,-10.91 -2.13,-14.15 -0.35,-2.43 0.6,-4.43 1.52,-6.1 1.34,-2.45 2.2,-2.92 5.55,-4.27 4.31,-1.75 11.92,-4.38 15.64,-6.54 -1.77,-5.12 -3.8,-10.28 -5.72,-15.35 -2.49,-6.6 -2.83,-8.08 0.04,-13.02l-3.57 -8.42c2.14,-2.9 21.92,-9.74 26.67,-11.56 9.28,-3.55 18.68,-7.07 27.91,-10.95 11.74,-4.93 45.42,-18.91 54.83,-24.19 0.22,-0.84 0.39,-1.8 0.01,-2.99 -1.67,-5.19 0.9,-0.15 -1.9,-6.73 -1.48,-3.48 1.7,-2.29 -4.86,-16.42 -3.89,-8.36 -6.24,-5.48 -7.34,-9.68 -0.65,-2.49 -1.48,-3.17 -3.27,-5.88 -1.33,-2.02 -2.47,-2.48 -4.27,-3.2l-2.35 0.77c-2.33,1.54 -6.26,6.4 -8.2,8.63 -1.1,1.27 -2.7,3.54 -4.17,4.23 -10.97,5.13 -8.19,2 -18.47,10.6 -3.17,2.65 -7.61,5.45 -11.71,7.19 -19.25,8.19 -38.7,15.98 -57.92,24.2 -1.24,-0.37 -0.46,-0.82 -2,-0.46 -1.64,0.39 -5.6,2.58 -8.08,3.01 -6.91,1.19 -6.64,2.61 -10.29,3.41 -6.33,1.38 -14.59,5.41 -20.99,7.98 -7.21,2.9 -14.44,5.84 -21.62,8.82 -6.98,2.9 -6.62,0.21 -9.06,0.57 -1.32,0.19 -8.31,3.8 -10.33,4.59 -0.69,-0.21 -1.8,-0.6 -2.61,-0.93 -0.66,-1.45 -0.31,-1.68 -1.65,-1.87 -0.53,0.71 -0.94,-0.32 0.23,2.64 -1.74,1.6 -2.77,1.91 -2.51,4.29 0.54,4.99 5.05,3.84 5.04,9.01 0,1.19 -0.21,3.53 -0.53,4.86 -4.43,1.53 -6.34,-0.42 -6.21,5.65 0.04,2.04 0.03,2.76 -1.58,3.9 -5.17,3.66 -2.83,-1.97 -13.45,-0.06 -1.73,0.31 -3.56,0.76 -5.31,1.45 -6.97,2.77 -1.86,5.94 2.63,4.65 3.08,-0.89 4.07,-1.26 7.08,-1.31l0.03 -0.01z"/>
 </g>
</svg>
