<?xml version="1.0" encoding="UTF-8"?>
<!DOCTYPE svg PUBLIC "-//W3C//DTD SVG 1.1//EN" "http://www.w3.org/Graphics/SVG/1.1/DTD/svg11.dtd">
<!-- Creator: CorelDRAW -->
<svg xmlns="http://www.w3.org/2000/svg" xml:space="preserve" width="68.2788mm" height="50mm" version="1.1" style="shape-rendering:geometricPrecision; text-rendering:geometricPrecision; image-rendering:optimizeQuality; fill-rule:evenodd; clip-rule:evenodd"
viewBox="0 0 1562.45 1144.17"
 xmlns:xlink="http://www.w3.org/1999/xlink"
 xmlns:xodm="http://www.corel.com/coreldraw/odm/2003">
 <defs>
  <style type="text/css">
   <![CDATA[
    .fil0 {fill:gray}
   ]]>
  </style>
 </defs>
 <g id="Camada_x0020_1">
  <metadata id="CorelCorpID_0Corel-Layer"/>
  <path class="fil0" d="M1222.78 643.36c25.57,42.45 -10.97,89.04 -36.07,103.71 -46.27,27.03 -134.57,-9.88 -155.62,-62.06 -26.56,-65.87 16.11,-125.89 102.51,-102.58 -4.44,12.07 -12.71,22.22 -11.68,38.79 1.11,17.72 7.24,22.4 3.61,43.21 -8.59,49.25 -51.74,21.93 -47.3,50.36 23.88,10.1 48.83,-9.27 60.09,-20.33 5.8,-5.69 14.05,-15.71 18.62,-24.06 4.67,-8.52 7.01,-21.3 12.71,-27.57 18.25,-2.87 30.59,5.87 53.11,0.54zm-883.12 0c-25.57,42.45 10.97,89.04 36.07,103.71 46.27,27.03 134.57,-9.88 155.62,-62.06 26.56,-65.87 -16.11,-125.89 -102.51,-102.58 4.44,12.07 12.71,22.22 11.68,38.79 -1.11,17.72 -7.24,22.4 -3.61,43.21 8.59,49.25 51.74,21.93 47.3,50.36 -23.88,10.1 -48.83,-9.27 -60.09,-20.33 -5.8,-5.69 -14.05,-15.71 -18.62,-24.06 -4.67,-8.52 -7.01,-21.3 -12.71,-27.57 -18.25,-2.87 -30.59,5.87 -53.11,0.54zm-283.54 500.81l-17.18 0c-14.95,-11.16 -17.79,-14.4 -20.6,-40.23 -1.98,-18.19 -2.73,-36.02 -5.07,-54.09 -2.29,-17.7 -9.61,-97.47 -13.27,-106.53l0 -59.78c4.18,-10.68 4.02,-28.15 6.38,-40.4 12.29,-63.63 47.16,-142.13 41.28,-186.13 -3.01,-22.5 -19.81,-56.16 -17.65,-74.25 5.95,-8.73 29.95,-19.53 39.58,-26.51 13.32,-9.65 24.78,-19.23 36.28,-29.78 18.9,-17.36 52.53,-42.23 63.97,-66.91 -9.06,-13.86 -19.96,-24.57 -38.63,-31.47 -46.2,-17.06 -34.65,9.18 -50.2,1.76 -4.66,-2.22 -27.5,-41.29 44.25,-36.07 46.22,3.36 32.53,-12.91 69.12,-19.68 2.24,-28.85 -1.04,-48.1 12.08,-54.54l285.08 -103.32c36.1,-12.76 28.55,-12.76 44.25,1.58 10.09,-3.4 18.01,-6.44 28.34,-10.18 15.01,-5.43 16.04,-3.5 25.22,5.74l51.18 -18.65c-60.65,-22.34 -148.43,-53.71 -168.42,-60.67 -65.95,-22.98 -62.37,-11.11 -35.45,-83.66 9.32,-25.1 9.69,-27.07 34.62,-18.82 9.89,-23.57 24.56,-24.78 35.03,-31.58l22.42 0c14.97,9.66 21.33,7.22 32.44,21.53 10.49,13.5 10.39,25.07 7.89,44.65l212.14 77.3 212.14 -77.3c-2.5,-19.57 -2.59,-31.14 7.9,-44.65 11.11,-14.3 17.47,-11.87 32.44,-21.53l22.42 0c10.48,6.8 25.15,8.01 35.03,31.58 24.93,-8.25 25.3,-6.28 34.62,18.82 26.92,72.55 30.5,60.68 -35.45,83.66 -19.99,6.97 -107.77,38.33 -168.42,60.67l51.18 18.65c9.19,-9.24 10.22,-11.17 25.23,-5.74 10.32,3.74 18.24,6.78 28.34,10.18 15.7,-14.34 8.15,-14.34 44.25,-1.58l285.08 103.32c13.13,6.45 9.84,25.7 12.08,54.54 36.59,6.76 22.9,23.04 69.12,19.68 71.75,-5.22 48.92,33.85 44.25,36.07 -15.56,7.42 -4,-18.82 -50.2,-1.76 -18.68,6.9 -29.58,17.61 -38.63,31.47 11.43,24.67 45.07,49.55 63.97,66.91 11.49,10.55 22.96,20.13 36.28,29.78 9.64,6.98 33.64,17.78 39.58,26.51 2.16,18.09 -14.64,51.75 -17.65,74.25 -5.87,43.99 29,122.5 41.28,186.13 2.36,12.25 2.2,29.72 6.39,40.4l0 59.78c-3.66,9.06 -10.99,88.83 -13.27,106.53 -2.34,18.08 -3.09,35.91 -5.07,54.09 -2.81,25.84 -5.64,29.07 -20.59,40.23l-17.18 0c-18.98,-9.88 -68.43,2.43 -157.82,-44.32 -132.94,-69.53 -28.87,-81.84 18.84,-255.31 7.83,-28.47 11.58,-60.69 0.38,-88.43 -8.18,-20.27 -27.85,-51.22 -43.22,-59.16 -21.03,-10.87 -51.98,-3.44 -69.81,19.97 -15.64,20.54 -27.71,40.61 -49.73,52.76 -68.29,37.68 -161.08,-12.77 -199.64,-78.07 -16.27,-27.55 -12.97,-55.05 -6.51,-87.57 4.27,-21.44 17.39,-43.6 -29.3,-64.4 -20.83,-9.28 -53.5,-18.14 -70.98,-31.05 -2.85,-18.88 28.43,-89.75 35.3,-111.53 -9.76,-8.62 -22.62,-4.18 -17.44,-24.52 2.93,-11.5 9.3,-22.81 12.25,-35.07 -38.75,-12.17 -80.24,-28.42 -118.06,-42.36 -9.8,-3.61 -19.62,-7.09 -29.38,-10.58 -9.76,3.49 -19.58,6.97 -29.38,10.58 -37.81,13.94 -79.3,30.19 -118.05,42.36 2.94,12.26 9.31,23.57 12.24,35.07 5.19,20.33 -7.68,15.9 -17.44,24.52 6.87,21.78 38.15,92.65 35.3,111.53 -17.48,12.91 -50.15,21.77 -70.98,31.05 -46.69,20.8 -33.57,42.95 -29.3,64.4 6.46,32.51 9.76,60.02 -6.51,87.57 -38.56,65.3 -131.35,115.75 -199.64,78.07 -22.02,-12.15 -34.09,-32.22 -49.73,-52.76 -17.83,-23.41 -48.78,-30.83 -69.81,-19.97 -15.37,7.94 -35.04,38.89 -43.22,59.16 -11.2,27.74 -7.45,59.96 0.38,88.43 47.71,173.47 151.77,185.78 18.83,255.31 -89.38,46.75 -138.84,34.44 -157.82,44.32z"/>
 </g>
</svg>
