<?xml version="1.0" encoding="UTF-8"?>
<!DOCTYPE svg PUBLIC "-//W3C//DTD SVG 1.1//EN" "http://www.w3.org/Graphics/SVG/1.1/DTD/svg11.dtd">
<!-- Creator: CorelDRAW -->
<svg xmlns="http://www.w3.org/2000/svg" xml:space="preserve" width="58.6032mm" height="41.7594mm" version="1.1" style="shape-rendering:geometricPrecision; text-rendering:geometricPrecision; image-rendering:optimizeQuality; fill-rule:evenodd; clip-rule:evenodd"
viewBox="0 0 498.36 355.12"
 xmlns:xlink="http://www.w3.org/1999/xlink"
 xmlns:xodm="http://www.corel.com/coreldraw/odm/2003">
 <defs>
  <style type="text/css">
   <![CDATA[
    .fil0 {fill:gray}
   ]]>
  </style>
 </defs>
 <g id="Camada_x0020_1">
  <metadata id="CorelCorpID_0Corel-Layer"/>
  <path class="fil0" d="M199.93 321.91l1.05 -1.64c1.24,-0.95 6.54,-9.21 7.58,-11.14l1.01 -1.69c2.05,-1.82 15.79,-24.62 18.1,-28.54l16.71 -30.24c-0.41,14.63 -5.93,62.26 4.87,69.42 8.44,-5.5 6.84,-39.97 6.18,-51.59 -0.33,-5.82 -1.25,-12.29 -1.27,-17.85 1.7,2.3 4.64,8.67 6.07,11.47 4.88,9.57 13.31,23.44 18.94,32.39 8.93,14.2 17.82,28 27.41,41.03 9.47,12.86 29.43,21.9 47.47,21.56 32.13,-0.61 58.6,-20.62 81.67,-38.68 1.72,-1.35 2.92,-2.22 4.89,-3.69 5.92,-4.39 -0.52,-14.39 2.21,-22.42 1.39,-4.07 4.58,-6.6 6.88,-10.2 5.39,-8.43 -1.16,-12.84 0.15,-29.82 1.09,-14.03 3.7,-15.94 -5.22,-27.55 -20.21,-26.27 -59.16,-37.06 -62.89,-39.85 14.4,-0.4 29.34,0.25 43.94,-0.04 14.4,-0.28 24.37,-4.57 31.63,-11.66 9.91,-9.69 9.41,-18.01 11.89,-31.47 2.21,-12.03 4.73,-23.88 7.59,-35.7 1.37,-5.67 3.03,-11.65 4.71,-17.19 4.12,-13.62 13.19,-21.58 16.46,-48.26 1.89,-15.41 -2.84,-36.4 -15.88,-37.78 -34.79,-3.7 -65.59,6.23 -93.86,23.24 -9.17,5.52 -17.98,11.64 -25.56,17.76 -8.34,6.75 -15.98,12.95 -23.02,20.29 -3.49,3.64 -7.17,7.35 -11.05,10.88 -4.74,4.31 -26.05,29.83 -29.83,34.86 -6.14,8.17 -12.36,16.68 -18.25,25.05 -2.98,4.24 -15.58,24.38 -17.36,25.97 -0.97,-1.7 -1.51,-4.16 -2.59,-5.98 -3.46,-5.82 0.2,-3.27 -2.35,-5.7 -2.04,-1.79 -1.8,-0.05 -4.27,-0.59 -1.68,-0.37 -2.39,-1.26 -4.68,-1.25 -2.36,0.01 -3.05,0.91 -4.71,1.27 -2.3,0.5 -2.27,-1.18 -4.23,0.58 -1.91,1.9 -0.25,0.9 -1.02,3.33 -0.21,0.67 -1.16,2.01 -1.55,2.7 -0.96,1.71 -1.47,4.09 -2.4,5.65 -1.93,-1.9 -4.83,-7.06 -6.72,-9.9 -11.91,-17.94 -20.33,-30.62 -34.1,-47.69l-14.87 -17.48 -1.24 -1.46c-0.98,-1.45 -3,-3.26 -4.19,-4.62l-21.99 -21.86c-3.3,-2.91 -6.37,-5.66 -9.37,-8.26 -34.22,-29.66 -78.78,-52.14 -126.87,-46.76 -5.26,0.59 -7.87,4.21 -10.13,7.63 -12.9,19.53 -1.8,52.38 7.14,68.48 10.71,19.28 16.95,76.17 21.05,84.29 10.46,20.69 28.8,21.61 48.38,21.81l34.62 0.01c-6.15,2.83 -12.96,4.87 -19.13,7.8 -17.08,8.11 -36.23,19.6 -46.26,35.06 -8.78,13.54 -0.81,18.29 -3.18,35.88 -0.53,3.94 -1.94,7.42 -1.84,11.43 0.21,8.37 7.43,10.83 9.29,17.91 2.3,8.77 -4.43,16.71 2.57,22.06 19.01,14.52 39.37,32.43 68.89,39.64 25.02,6.11 43.98,-0.11 61.25,-15.61 2.74,-2.46 9.19,-11.57 11.27,-15.28z"/>
 </g>
</svg>
