<?xml version="1.0" encoding="UTF-8"?>
<!DOCTYPE svg PUBLIC "-//W3C//DTD SVG 1.1//EN" "http://www.w3.org/Graphics/SVG/1.1/DTD/svg11.dtd">
<!-- Creator: CorelDRAW -->
<svg xmlns="http://www.w3.org/2000/svg" xml:space="preserve" width="39.4849mm" height="50mm" version="1.1" style="shape-rendering:geometricPrecision; text-rendering:geometricPrecision; image-rendering:optimizeQuality; fill-rule:evenodd; clip-rule:evenodd"
viewBox="0 0 297.13 376.26"
 xmlns:xlink="http://www.w3.org/1999/xlink"
 xmlns:xodm="http://www.corel.com/coreldraw/odm/2003">
 <defs>
  <style type="text/css">
   <![CDATA[
    .fil0 {fill:gray}
   ]]>
  </style>
 </defs>
 <g id="Camada_x0020_1">
  <metadata id="CorelCorpID_0Corel-Layer"/>
  <path class="fil0" d="M139.73 308.3c-8.65,-2.98 -8.87,-16.46 -5.45,-23.75 2.95,-6.29 9.38,-15.61 14.3,-17.97 8.05,4.2 26.41,32.09 10.11,41.62 -11.61,-4.39 -12.46,-1.07 -18.96,0.1zm-13.03 -57.21c1.12,10.43 -9.42,20.14 -14.99,23.55 -7.86,4.82 -22.04,6.5 -32.69,6.66 -27.89,0.44 -38.63,-8.28 -45.04,-32.17 -2.37,-8.81 -7.4,-27.13 5.78,-27.08 14,0.05 76.36,20.89 86.93,29.03zm43.73 -0.14c12.26,-7.92 75.91,-32.01 93.56,-28 3.79,11.46 0.09,26.96 -4.74,37.43 -5.61,12.16 -11.73,17.57 -27.15,19.96 -12.95,2.01 -29.7,0.71 -41.51,-3.35 -8.54,-2.94 -21.2,-14.04 -20.17,-26.04zm-89.1 103.96c3.44,2.65 7.09,5.57 11.63,8.03 2.34,-2.75 2.45,-6.39 3.13,-10.14l3.19 -11.46c3.01,5.44 4.13,19 6.54,27.12l11.86 3.84 4.61 -22.48 5.63 23.7c4.17,2.51 9.82,2.33 14.81,2.73l5.47 -26.29 5.95 25.11c1.58,0.51 0.16,0.36 3.44,0.69 6.14,0.62 9.66,-1.3 9.67,-1.3l7.07 -24.79 5.14 22.14 11.51 -2.67c2.63,-7.03 3.5,-18.15 5.27,-23.81l1.18 -2.99c0.1,-0.24 0.29,-0.67 0.47,-0.98l5.34 21.7c5.02,-1.59 9.16,-5.63 12.6,-8.14 1.34,-16.81 -6.1,-39.34 27.48,-44.56 20.6,-3.2 37.87,-13.31 39.55,-34.15 0.92,-11.37 -2.7,-21.79 -1.32,-35.32 2.81,-27.57 12.15,-54.13 14.95,-94.9 3.68,-53.64 -8.26,-83.76 -37.19,-109.5 -54.16,-48.2 -166.29,-48.94 -220.75,-0.58 -28.55,25.36 -41.57,53.83 -37.95,108.77 1.44,21.88 5.14,42.92 9.24,64.09 11.35,58.54 2.8,35.03 4.38,66.18 1.09,21.56 18.2,31.72 38.33,35.2 12.2,2.11 18.49,4.1 24.3,12.52 7.52,10.89 3.61,19.51 4.48,32.24z"/>
 </g>
</svg>
