<?xml version="1.0" encoding="UTF-8"?>
<!DOCTYPE svg PUBLIC "-//W3C//DTD SVG 1.1//EN" "http://www.w3.org/Graphics/SVG/1.1/DTD/svg11.dtd">
<!-- Creator: CorelDRAW -->
<svg xmlns="http://www.w3.org/2000/svg" xml:space="preserve" width="42.579mm" height="50mm" version="1.1" style="shape-rendering:geometricPrecision; text-rendering:geometricPrecision; image-rendering:optimizeQuality; fill-rule:evenodd; clip-rule:evenodd"
viewBox="0 0 432.2 507.53"
 xmlns:xlink="http://www.w3.org/1999/xlink"
 xmlns:xodm="http://www.corel.com/coreldraw/odm/2003">
 <defs>
  <style type="text/css">
   <![CDATA[
    .fil0 {fill:gray}
   ]]>
  </style>
 </defs>
 <g id="Camada_x0020_1">
  <metadata id="CorelCorpID_0Corel-Layer"/>
  <path class="fil0" d="M192.03 453.08c-1.51,-3.66 -10.63,-8.17 -8.86,-30.07 1.05,-13.03 4.27,-16.56 2.14,-30.94 -0.05,-0.31 -0.22,-1.68 -0.21,-1.95 0.03,-3.01 -0.1,-0.85 0.29,-1.87 3.65,2.65 3.8,4.68 8.17,5.66 2.81,-3.56 3.19,-12.34 8.24,-18.91 12.81,-16.68 14.75,-17.37 27.9,-0.81 7.88,9.92 5.43,14.6 8.76,18.41 5.44,-0.2 4.23,-3.06 9.01,-5.07 -3.32,24.54 7.09,46.39 -3.72,61.2 -8.02,10.98 -14.79,5.2 -23.06,-0.22 -10.32,-6.76 -12.08,8.69 -25,6l-3.66 -1.44zm44.06 -107.16c-0.66,-5.85 -17.7,-11.78 -0.78,-45.37 20.96,-41.59 56.35,-29.63 77.68,-43.87 21.6,-14.43 14.48,-34.51 17.57,-43.22 4.35,2.19 10.92,14.11 13.27,18.45 1.82,3.34 3.51,6.97 4.86,10.57 1.36,3.63 1.9,8.74 3.65,11.84 5.96,-0.96 8.95,-8.14 15.22,-8.82 8.64,12.87 5.98,36.59 -0.01,50.32 -8.81,20.19 -22.81,25.27 -27.21,32.86 1.89,5.68 10.79,8.14 6.09,15.85 -4.33,7.1 -12.51,2.72 -17.94,5.6 -5.44,2.88 -9.03,12.05 -25.71,21.53 -27.11,15.42 -61.6,-2.64 -61.71,-21.41l-12.86 1.05c3.65,-3.9 4.41,-2.58 7.89,-5.37zm-155.7 -91.46c3.74,-12.49 10.1,-32.95 21.45,-40.88 1.07,10.72 -0.7,17.26 3.79,26.98 12.43,26.89 41.24,21.6 60.42,30.35 14.06,6.41 24.49,16.16 30.97,29.8 15.43,32.47 2.16,37.35 -0.54,44.32 2.58,3.76 4.03,2.28 6.33,5.44 -3.56,1.52 -6.22,-0.14 -10.6,0.49 -1.97,7.39 -3.54,10.07 -7.94,13.83 -14.24,12.19 -30.43,16.95 -49.01,9.45 -13.09,-5.29 -17.39,-10.8 -25.14,-18.39 -9.59,-9.39 -5.73,-7.15 -13.75,-6.66 -6.26,0.38 -10.91,-4.21 -12.37,-8.71 2.34,-6.78 5.82,-5.72 8.24,-11.8 -3.8,-7.17 -18.34,-11.63 -27.85,-33.26 -5.53,-12.59 -8.92,-38.23 0.29,-49.33 6.72,-0.36 7.35,6.7 15.68,8.37zm-49.26 90.83c-5.05,3.5 -10.23,27.67 2.15,40.22 17.78,18.02 56.26,-2.17 90.43,18.46 11.71,7.07 21.11,21.98 19.86,34.24 -6.75,-4.47 -12.18,-18.75 -22.78,-20.58 -0.14,12.13 8.35,9.75 5.38,45.29 -0.84,10.07 -7.94,40.11 2.95,43.46 2.17,-5.63 0.75,-14.48 8.01,-29.97 3.5,-7.44 11.17,-19.87 17.3,-21.41 2.8,9.37 -1.23,25.58 5.53,32.54 1.61,-1.09 0.74,0.11 2.21,-2.43 1.77,-3.06 6.42,-16.48 13.49,-18.82 1.5,7.62 2.24,20.02 7.9,23.51 1.37,-1.07 4.53,-7.32 5.93,-9.11 2.08,-2.66 5.29,-5.49 9.58,-6.72 2.77,12.71 7.79,30.08 17.16,33.57 13.79,-7.14 14.49,-29.66 17.24,-33.8 9.3,2.96 11.2,12.26 15.42,15.01 6.46,-4.15 6.63,-15.03 6.88,-23.51 2.51,0.67 7.5,7.26 9.2,9.76 2.6,3.81 4.07,10.19 7.51,12.32 6,-5.71 3.76,-23.62 5.66,-32.26 5.53,1.54 13.2,13.73 16.86,20.76 5.46,10.5 4.97,20.7 8.35,30.53 12.71,-3.96 -1.1,-44.55 2.51,-67.3 1.09,-6.88 5.51,-15.36 4.92,-21.41 -10.19,2.56 -18.5,18.56 -22.52,21.59 3.89,-64.02 89.51,-35.3 108.43,-51.66 4.39,-3.79 8.74,-8.83 9.49,-17.1 0.38,-4.15 0.19,-9.49 -0.31,-13.63 -0.56,-4.57 -1.16,-7.74 -3.64,-10.4 -4.71,1.1 -3.35,3.19 -6.89,7.13 -1.96,2.18 -4.45,4.68 -8.64,4.96 -8.01,0.54 -12.28,-6.5 -12.62,-14.41 -0.65,-15.07 17.85,-39.54 26.64,-55.97 4.53,-8.46 5.72,-11.27 5.74,-22.05 0.02,-8.72 -0.23,-15.99 -3.05,-23.88 -2.06,-5.77 -8.85,-14.9 -8.4,-19.69 5.68,-5.15 9.64,-1.69 16.12,1.11 26.03,11.26 22.17,-23.32 18.15,-39.01 -6,-23.44 -16.69,-46 -20.91,-69.89 -6.37,-36.1 4.78,-69.17 -36.5,-99.62 -6.07,-4.48 -21,-14.77 -30.62,-15.11 1.93,9.24 7.05,16.14 2.42,34.26 -0.88,3.46 -0.46,2.57 -2.26,4.42 -13.01,-3.61 -10.98,-28.55 -125.22,-29.76 -30.67,-0.33 -73.74,2.21 -102,14.5 -14.57,6.34 -18.06,14.73 -24.29,15.16 -7.79,-27.65 -0.15,-26.57 -1.03,-38.12 -9.29,-0.92 -35.86,18.47 -43.5,28.57 -30.77,40.68 -8.8,51.72 -29.83,115.4 -5.06,15.32 -15.33,41.58 -15.58,58.13 -0.15,10.44 1.47,24.41 12.87,23.47 5.47,-0.45 27.18,-13.26 23.67,-0.19 -0.62,2.3 -4.63,8.95 -6.05,12.43 -17.44,42.62 10.46,58.4 24.48,91.12 8.46,19.74 -2.78,36 -15.6,26.45 -4.76,-3.55 -4.65,-6.82 -8.23,-10.54z"/>
 </g>
</svg>
