<?xml version="1.0" encoding="UTF-8"?>
<!DOCTYPE svg PUBLIC "-//W3C//DTD SVG 1.1//EN" "http://www.w3.org/Graphics/SVG/1.1/DTD/svg11.dtd">
<!-- Creator: CorelDRAW -->
<svg xmlns="http://www.w3.org/2000/svg" xml:space="preserve" width="30.9417mm" height="50mm" version="1.1" style="shape-rendering:geometricPrecision; text-rendering:geometricPrecision; image-rendering:optimizeQuality; fill-rule:evenodd; clip-rule:evenodd"
viewBox="0 0 335.02 541.37"
 xmlns:xlink="http://www.w3.org/1999/xlink"
 xmlns:xodm="http://www.corel.com/coreldraw/odm/2003">
 <defs>
  <style type="text/css">
   <![CDATA[
    .fil0 {fill:gray}
   ]]>
  </style>
 </defs>
 <g id="Camada_x0020_1">
  <metadata id="CorelCorpID_0Corel-Layer"/>
  <path class="fil0" d="M47.07 309.44c0.01,31.48 21.14,55.05 38.09,71.38 71.37,68.75 -7.59,86.86 -43.06,70.23 -27.22,-12.77 -30.5,-49.66 -29.68,-80.57 -4.26,5.16 -8.67,23.98 -10.24,32.34 -9.42,50.15 12.2,87.52 54.83,111.38 21.6,12.08 76.42,25.48 100.9,27.19 -0.8,-1.02 -35.48,-21.16 -41.61,-35.35 15.05,3.78 24.03,8.23 42.01,5.58 27.01,-3.99 46.73,-30.54 45.76,-51.15 -1.34,-28.43 -39.67,-54.12 -55.33,-89.77 -8.5,-19.34 -10.11,-39.44 -3.25,-60.42 1.28,-3.91 4.79,-14.28 7.78,-17.18 -2.33,26.68 -0.61,47.21 26.07,58.89 20.63,9.03 36.29,15.46 49.71,36.83 3.78,6.02 6.7,12.51 8.42,20.35 2.34,10.67 -0.55,19.25 0.79,26.6 10.67,2.52 23.3,-24.86 25.46,-38.59 1.34,-8.56 -0.15,-12.93 0.09,-20.3l11.17 29.68c8.93,27.49 16.43,61.81 11.99,91.18 -0.95,6.29 -3.13,11.67 -4.13,17.24 9.02,-5.19 23.06,-22.73 29.94,-33.16 7.9,-11.98 15.34,-27.02 19.11,-43.65 11.93,-52.6 -12.2,-103.75 -38.25,-144.44 -8.42,-13.16 -16.6,-24.95 -24.71,-38.09 -33.15,-53.71 12.81,-73.36 21.61,-82.04 -8.41,1.33 -26.25,11.44 -32.6,15.77 -10.05,6.84 -17.88,13.75 -24.33,24.92 -10.18,17.64 -8.75,39.94 -0.03,58.88 2.64,5.74 6.65,11.16 8.54,15.56 -9.94,-5.04 -22.67,-17.71 -27.9,-29.37 -6.91,-15.39 -4.84,-33.3 -0.02,-49.17 8.68,-28.62 25.44,-55.87 29.14,-87.32 6.11,-51.92 -33.9,-83.47 -68.06,-104.53 -8.35,-5.15 -29.45,-15.7 -39.82,-18.33 11.83,11.58 16.57,11.27 28.59,30.39 8.05,12.8 13.51,28.6 13.16,47.4 -1.19,64.36 -57.2,106.74 -92.31,148.97 -14.66,17.63 -37.83,49.37 -37.81,82.68z"/>
 </g>
</svg>
