<?xml version="1.0" encoding="UTF-8"?>
<!DOCTYPE svg PUBLIC "-//W3C//DTD SVG 1.1//EN" "http://www.w3.org/Graphics/SVG/1.1/DTD/svg11.dtd">
<!-- Creator: CorelDRAW -->
<svg xmlns="http://www.w3.org/2000/svg" xml:space="preserve" width="33.1597mm" height="50mm" version="1.1" style="shape-rendering:geometricPrecision; text-rendering:geometricPrecision; image-rendering:optimizeQuality; fill-rule:evenodd; clip-rule:evenodd"
viewBox="0 0 12.3 18.55"
 xmlns:xlink="http://www.w3.org/1999/xlink"
 xmlns:xodm="http://www.corel.com/coreldraw/odm/2003">
 <defs>
  <style type="text/css">
   <![CDATA[
    .fil0 {fill:gray}
   ]]>
  </style>
 </defs>
 <g id="Camada_x0020_1">
  <metadata id="CorelCorpID_0Corel-Layer"/>
  <path class="fil0" d="M6.92 10.58c0.86,0.15 2.01,1.04 2,1.75 -0.02,1 -1.02,1.81 -1.91,1.88l-0.09 -3.62zm-1.47 -3.62c-2.38,-0.46 -2.08,-3.33 -0.07,-3.32l0.07 3.32zm1.55 0.41c-0.22,-0.82 -0.05,-2.42 0.06,-3.31 0.42,-0.07 0.9,0.38 1.08,0.57 0.36,0.38 0.47,0.65 1.05,0.37 0.66,-0.32 1.79,-0.72 2.2,-1.14 0.41,-0.43 0.09,-0.88 -0.38,-1.21 -0.73,-0.52 -2.2,-0.81 -3.07,-0.81 -0.38,-0 -0.63,0.06 -0.98,0.09l0.19 -1.92 -2.21 0.14c0.06,0.53 0.41,1.89 0.33,2.29 -0.38,0.24 -1.1,0.47 -1.54,0.7 -1.24,0.65 -3.04,1.87 -3.31,3.34 -0.54,2.87 3.22,2.88 5.14,3.62l-0.08 4.11c-1.76,-0.72 -1.8,-1.3 -2.23,-1.79 -0.17,-0.2 -0.16,-0.17 -0.4,-0.08 -0.59,0.22 -1.5,0.66 -1.94,0.88 -0.37,0.19 -0.73,0.34 -0.85,0.69 -0.16,0.48 0.02,0.92 0.27,1.18 1.11,1.14 3.58,1.18 5.07,1.2l0.01 2.26c0.46,-0.14 1.63,-0.3 1.83,-0.41l-0.09 -2.36c1.63,-0.71 4.53,-2.54 5.05,-4.36 0.96,-3.38 -4.79,-3.22 -5.19,-4.05z"/>
 </g>
</svg>
