<?xml version="1.0" encoding="UTF-8"?>
<!DOCTYPE svg PUBLIC "-//W3C//DTD SVG 1.1//EN" "http://www.w3.org/Graphics/SVG/1.1/DTD/svg11.dtd">
<!-- Creator: CorelDRAW -->
<svg xmlns="http://www.w3.org/2000/svg" xml:space="preserve" width="50mm" height="41.3495mm" version="1.1" style="shape-rendering:geometricPrecision; text-rendering:geometricPrecision; image-rendering:optimizeQuality; fill-rule:evenodd; clip-rule:evenodd"
viewBox="0 0 3531.57 2920.57"
 xmlns:xlink="http://www.w3.org/1999/xlink"
 xmlns:xodm="http://www.corel.com/coreldraw/odm/2003">
 <defs>
  <style type="text/css">
   <![CDATA[
    .fil0 {fill:gray}
   ]]>
  </style>
 </defs>
 <g id="Camada_x0020_1">
  <metadata id="CorelCorpID_0Corel-Layer"/>
  <g id="_1309117964880">
   <path class="fil0" d="M-0 681.4c0,373.31 284.26,739.47 520.25,1005.06 162.79,183.25 288.09,308.92 469.82,476.97l302.32 276.25c16.72,-11.15 20.83,-18.45 36.52,-31.11 18.24,-14.66 22.89,-16.61 40.58,-34.57l225.5 -202.78c84.51,-81.32 311.41,-302.97 390.95,-398.09 12.06,-14.44 23.7,-24.51 37.22,-37.87l202.07 -233.78c23.97,-29.43 85,-86.08 77.48,-123.78 -9.15,-45.94 -47.17,-132.45 -56,-170.31l-15.04 0c-16.61,62.16 -297.4,383.96 -377.69,463.87 -24.78,24.66 -34.68,42.8 -59.94,67.78 -83.64,82.67 -161.17,160.91 -244.27,244.17 -42.58,42.63 -81.1,73.2 -123.89,116.53l-133.47 114.54c-59.3,-39.77 -476.15,-444.12 -508.72,-483.13l-116.75 -131.25c-119.08,-128.01 -233.99,-268.67 -325.64,-418.21 -146.13,-238.48 -258.93,-525.6 -95.01,-787.51 103.83,-165.88 295.83,-223.77 490.11,-223.77 280.58,0 440.78,252.5 521.27,478.1 12.07,33.97 31.76,72.07 34.74,108.04l15.04 0c0.76,-34.14 54.05,-187.63 67.63,-217.93 51.99,-116.16 147.1,-249.14 262.72,-308.33 188.82,-96.57 398.3,-69.14 576.41,25.21 179.83,95.27 252.98,326.61 205.31,531.07 30.68,20.5 76.39,79.21 97.61,112.85 11.36,18.07 13.74,31.06 37.65,37.44 7.08,-85.43 45.07,-86.24 45.07,-300.59 0,-107.66 -29.16,-181.35 -58.92,-256.66 -38.95,-98.63 -132.82,-202.78 -224.14,-256.72 -242.76,-143.32 -564.18,-170.58 -797.52,-11.2 -59.51,40.69 -195.96,172.21 -211.82,231.56 -33.75,-9.03 -47.71,-56.43 -99.55,-110.86 -17.09,-17.91 -18.55,-24.83 -33.75,-41.38 -23.16,-25.32 -131.69,-109.39 -168.21,-124.87 -158.95,-67.25 -298.97,-87.91 -489.02,-40.03 -314.28,79.21 -516.9,312.82 -516.9,655.28z"/>
   <path class="fil0" d="M1390.1 1395.22c0,124.28 27.32,396.36 75.14,495.96 41.93,-28.13 82.99,-80.34 120.21,-105.23 -38.08,-79.31 -52.59,-289.72 -52.59,-398.24 0,-247.95 171.72,-492.33 466.31,-466.69 211.92,18.45 338.89,106.58 404.36,302.32 53.02,158.52 37.55,220.41 29.32,382.18 21.21,-7.14 22.4,-11.85 47.83,-43.93 17.15,-21.58 29.21,-32.79 45.12,-52.53 334.02,-414.97 863.04,-110.16 863.04,216.78 0,247.95 -194.28,410.31 -376.71,547.57 -55.94,42.04 -133.15,77.58 -194.72,113.34 -113.72,66.06 -285.87,137.8 -415.07,193.58l-329.43 128.92c-33.49,12.01 -81.48,35.33 -119.3,38.52l-232.91 -541.02c-38.58,25.81 -77.96,74.39 -112.75,97.66 15.2,65.09 104.09,242.32 134.23,316.66 15.09,37.27 136.39,299.51 151.32,299.51 34.68,0 455.98,-163.65 517.49,-188.81 170.21,-69.79 537.56,-233.99 701.92,-357.56 69.63,-52.37 130.44,-101.06 191.36,-161.82 132.87,-132.55 227.28,-281.17 227.28,-486.54 0,-370.27 -487.19,-723.18 -898.52,-477.77 -22.24,13.25 -43.18,32.14 -70.77,34.46 0,-106.96 -88.35,-271.16 -174.59,-351.39 -219.44,-204.13 -657.12,-218.25 -850.64,39.98 -77.53,103.39 -146.94,247.46 -146.94,424.11z"/>
  </g>
 </g>
</svg>
