<?xml version="1.0" encoding="UTF-8"?>
<!DOCTYPE svg PUBLIC "-//W3C//DTD SVG 1.1//EN" "http://www.w3.org/Graphics/SVG/1.1/DTD/svg11.dtd">
<!-- Creator: CorelDRAW -->
<svg xmlns="http://www.w3.org/2000/svg" xml:space="preserve" width="50mm" height="47.043mm" version="1.1" style="shape-rendering:geometricPrecision; text-rendering:geometricPrecision; image-rendering:optimizeQuality; fill-rule:evenodd; clip-rule:evenodd"
viewBox="0 0 5771.83 5430.49"
 xmlns:xlink="http://www.w3.org/1999/xlink"
 xmlns:xodm="http://www.corel.com/coreldraw/odm/2003">
 <defs>
  <style type="text/css">
   <![CDATA[
    .fil0 {fill:gray}
   ]]>
  </style>
 </defs>
 <g id="Camada_x0020_1">
  <metadata id="CorelCorpID_0Corel-Layer"/>
  <path class="fil0" d="M3366.91 4840.89c-48.43,-207.86 -301.6,-460.75 -390.2,-571.77 -35.2,-44.11 -49.06,-68.05 -95.34,-106.39 -380.16,-314.89 -414.52,-371.78 -902.08,-665 -49.85,-29.98 -75.4,-47.49 -127.71,-73.99 -251.79,-127.62 -610.2,-359.19 -807.94,-557.43 -43.05,-43.15 -65.08,-51.3 -103.93,-97.79 -37.89,-45.34 -60.48,-62.89 -98.18,-103.51 -247.22,-266.43 -484.67,-731.96 -484.67,-1097.94 0,-335.56 24.2,-651.5 260.17,-919.01 507.52,-575.31 1042.95,-343.98 1619.43,125.51 130.64,106.39 254.25,220.06 374.05,339.67 66.46,66.34 289.28,343.74 352.98,360.74 11.61,-43.46 38.93,-68.13 66.45,-104.24 27.49,-36.06 48.46,-64.4 73.2,-97.46 268.79,-359.23 851.67,-1086.1 1303.31,-1086.1 466.94,0 1008.52,536.43 1008.52,1055.07 0,324.13 -5.38,429.99 -114.43,754.44 -290.14,863.18 -987.51,1817.18 -1595.91,2500.23l-158.09 183.27c-36.19,46.88 -126.51,147.52 -179.63,161.7zm2404.93 -3535.4l0 227.84c-15.33,220.95 -72.84,442.05 -152.82,656.72 -111.35,298.93 -249.79,563.82 -412.28,828.97 -126.83,206.95 -362.99,534.38 -505.31,720.42 -186.44,243.71 -457.03,544.81 -663.59,779.38l-503.94 520.09c-44.36,41.03 -71.06,54.36 -116.71,100.52l-207.75 195.65c-42.48,34.01 -61.52,65.41 -106.31,95.4 17.64,-75.7 46.54,-136.32 46.54,-232.73 0,-442.03 -411.23,-823.83 -667.17,-1024.04 -593.17,-464.02 -974.23,-536.18 -1549.47,-964.08 -230.84,-171.71 -452.2,-411.77 -610.53,-646.24 -34.47,-51.06 -48.44,-81.66 -80.86,-136.34 -198.2,-334.27 -241.64,-605.44 -241.64,-999.61 0,-923.65 1139.06,-1964.45 2423.9,-841.3l493.04 484.44c27.97,-120.07 266.62,-370.81 328.14,-447.65 227.35,-284.05 714.89,-622.93 1083.79,-622.93l155.16 0c331.65,0 694.04,250.23 865.04,422.76 135.53,136.78 192.38,186.58 283.14,368.52 83.67,167.72 126.93,340.21 139.62,514.21z"/>
 </g>
</svg>
