<?xml version="1.0" encoding="UTF-8"?>
<!DOCTYPE svg PUBLIC "-//W3C//DTD SVG 1.1//EN" "http://www.w3.org/Graphics/SVG/1.1/DTD/svg11.dtd">
<!-- Creator: CorelDRAW -->
<svg xmlns="http://www.w3.org/2000/svg" xml:space="preserve" width="49.9997mm" height="50mm" version="1.1" style="shape-rendering:geometricPrecision; text-rendering:geometricPrecision; image-rendering:optimizeQuality; fill-rule:evenodd; clip-rule:evenodd"
viewBox="0 0 306.04 306.04"
 xmlns:xlink="http://www.w3.org/1999/xlink"
 xmlns:xodm="http://www.corel.com/coreldraw/odm/2003">
 <defs>
  <style type="text/css">
   <![CDATA[
    .fil0 {fill:gray}
   ]]>
  </style>
 </defs>
 <g id="Camada_x0020_1">
  <metadata id="CorelCorpID_0Corel-Layer"/>
  <path class="fil0" d="M152.23 274.65c-0.31,-13.64 -11.21,-29.93 -17.65,-38.28 -22.75,-29.49 -66.06,-47.92 -87.9,-81.67 -7.38,-11.41 -12.56,-27.9 -7.62,-44.48 4.06,-13.61 15.21,-25.29 25.61,-30.87 14.51,-7.79 30.1,-7.59 45.78,-1.25 18.95,7.66 21.86,12.77 34.07,22.51 2.05,-3.03 3.03,-31.11 21.12,-47.67 20.77,-19.02 52.34,-20.73 78.48,-6.93 24.39,12.87 34.28,42.66 28.04,71.93 -5.94,27.85 -19.41,47.26 -34.93,68.12 -4.61,6.2 -10.58,13.86 -15.82,19.25 -1.53,1.58 -2.41,2.95 -3.95,4.64 -1.9,2.09 -2.52,2.59 -4.09,4.49 -2.51,3.03 -5.55,6.01 -8.24,8.93 -5.52,5.99 -11.14,11.54 -17.03,17.31 -5.3,5.18 -11.53,12.02 -17.21,17.13 -4.23,3.8 -15.16,14.9 -18.64,16.84zm10.54 11.56c28.36,-23.97 39.08,-32.62 65.18,-58.6 1.73,-1.73 3.61,-3.87 5.24,-5.5 15.05,-15.01 27.48,-30.38 40.92,-49.24 11.48,-16.09 22.92,-38.38 28.48,-60.92 12.68,-51.37 -9.86,-97.86 -63.01,-109.35 -40.59,-8.77 -74.13,4.76 -90.89,39.16 -7.8,16.01 -7.66,29.88 -9.9,34.55 -1.79,-1.06 -3.47,-2.86 -5.22,-4.2 -28.57,-21.85 -64.01,-36.49 -97.64,-15.76 -11.92,7.35 -25.93,23.83 -31.44,39.42 -7.47,21.14 -5.26,38.52 3.94,57.1 14.85,29.98 47.79,48.46 73.89,67.09 15.44,11.02 26.67,19.06 37.45,33.36 8.91,11.81 18.46,33.05 17.24,52.72l25.75 -19.83z"/>
 </g>
</svg>
