<?xml version="1.0" encoding="UTF-8"?>
<!DOCTYPE svg PUBLIC "-//W3C//DTD SVG 1.1//EN" "http://www.w3.org/Graphics/SVG/1.1/DTD/svg11.dtd">
<!-- Creator: CorelDRAW -->
<svg xmlns="http://www.w3.org/2000/svg" xml:space="preserve" width="46.3562mm" height="50mm" version="1.1" style="shape-rendering:geometricPrecision; text-rendering:geometricPrecision; image-rendering:optimizeQuality; fill-rule:evenodd; clip-rule:evenodd"
viewBox="0 0 224.12 241.74"
 xmlns:xlink="http://www.w3.org/1999/xlink"
 xmlns:xodm="http://www.corel.com/coreldraw/odm/2003">
 <defs>
  <style type="text/css">
   <![CDATA[
    .fil0 {fill:gray}
   ]]>
  </style>
 </defs>
 <g id="Camada_x0020_1">
  <metadata id="CorelCorpID_0Corel-Layer"/>
  <path class="fil0" d="M93.72 87.58c-4.79,-5.33 -9.74,-10.58 -14.49,-15.96l-14.52 -15.17c-5.44,-6.33 -8.57,-10.67 -16.11,-14.3 -16.61,-8 -30.61,-20.33 -41.73,-34.35 -2.06,-2.59 -4.66,-5.94 -6.86,-7.8 -0.15,14.07 2.11,33.63 6.66,45.34 7.73,19.86 20.54,29.01 32.64,44.08 11.27,12.74 42.92,52.02 49.67,53.83 6.48,3.37 12.68,5.45 19.39,9.16 6.3,3.48 11.82,7.17 17.13,11.19 6.61,5.01 25.41,21.9 28.73,28.79l-8.19 8.34 3.51 3.47 8.82 -8.42c2.1,1.52 3.44,3.82 7.45,2.91 -0.63,5.32 1.94,7.9 7.13,7.23 -0.47,5.36 1.85,7.67 7.27,7.23 -1.17,4.6 2.37,8.35 7.07,7 -0.63,5.36 1.95,7.81 7.11,7.29 -0.42,5 1.6,7.16 6.29,7.46 -0.79,22.58 38.84,-17.89 16.67,-16.57 -0.55,-3.76 -2.4,-4.83 -4.9,-6.13 -0.13,-0.07 -1.38,-0.7 -1.39,-0.71 -1.8,-1.42 -1.02,-2.65 -3.35,-4.96 -1.37,-1.36 -2.27,-1.87 -4.97,-1.86 0.22,-4.17 -2.95,-7.23 -7.05,-7.05 0,-6.31 -4.89,-6.39 -6.46,-7.92 -0.95,-0.92 -0.96,-2.63 -2.94,-4.61 -1.44,-1.45 -2.27,-1.95 -5.06,-1.82 0.3,-4.63 -1.6,-4.23 -3.63,-7.01l6.38 -6.79c-1.14,-1.89 -1.55,-2.34 -3.5,-3.27l-6.92 6.52 -21.8 -22.91c-17.59,-17.28 -42.73,-45.13 -58.07,-62.21z"/>
 </g>
</svg>
