<?xml version="1.0" encoding="UTF-8"?>
<!DOCTYPE svg PUBLIC "-//W3C//DTD SVG 1.1//EN" "http://www.w3.org/Graphics/SVG/1.1/DTD/svg11.dtd">
<!-- Creator: CorelDRAW -->
<svg xmlns="http://www.w3.org/2000/svg" xml:space="preserve" width="49.2134mm" height="50mm" version="1.1" style="shape-rendering:geometricPrecision; text-rendering:geometricPrecision; image-rendering:optimizeQuality; fill-rule:evenodd; clip-rule:evenodd"
viewBox="0 0 1416.58 1439.23"
 xmlns:xlink="http://www.w3.org/1999/xlink"
 xmlns:xodm="http://www.corel.com/coreldraw/odm/2003">
 <defs>
  <style type="text/css">
   <![CDATA[
    .fil0 {fill:gray}
   ]]>
  </style>
 </defs>
 <g id="Camada_x0020_1">
  <metadata id="CorelCorpID_0Corel-Layer"/>
  <path class="fil0" d="M22.49 1423.41c22.45,19.15 48.88,20.6 76.24,6.03 47.17,-25.11 136.67,-94.63 179.2,-127.06 19.92,-15.19 37.76,-30.63 55.65,-47.45 18.66,-17.55 35.51,-30.42 53.72,-49.49l98.05 -104.1c19.5,11.76 33.78,33.06 53.26,46.54 13.31,-7.17 32.54,-28.82 37.37,-42.35 -21.56,-12.22 -302.41,-285.29 -317.71,-291.31l-33.85 39.87 130.85 129.15c-6.92,14.52 -36.95,40.57 -49.34,54.14 -16.9,18.5 -29.09,30.98 -50.27,52.92l-249.35 263.47c-15.93,24.63 1.64,57.24 16.19,69.64zm316.02 -562.67l185.57 176.99c17.82,-6.72 94.54,-98.38 119.23,-122.18l146.47 -156.48c10.02,-11.26 18.08,-20.94 28.37,-31.57l290.5 -311.99 95.9 -147.03c51.48,-74.53 111.52,-151.09 169.53,-219.97 5.69,-6.75 9.24,-8.62 14.63,-15.32 9.34,-11.61 20.09,-22.15 27.87,-33.18 -34.98,5.98 -133.26,54.8 -165.26,72.21 -191.48,104.17 -301.06,186.52 -464.71,324.25l-155.08 147.76c-10.28,10.99 -18.21,20.28 -28.34,31.64 -10.14,11.38 -20.85,20.75 -30.98,32.24l-233.69 252.64z"/>
 </g>
</svg>
