<?xml version="1.0" encoding="UTF-8"?>
<!DOCTYPE svg PUBLIC "-//W3C//DTD SVG 1.1//EN" "http://www.w3.org/Graphics/SVG/1.1/DTD/svg11.dtd">
<!-- Creator: CorelDRAW -->
<svg xmlns="http://www.w3.org/2000/svg" xml:space="preserve" width="47.0642mm" height="50mm" version="1.1" style="shape-rendering:geometricPrecision; text-rendering:geometricPrecision; image-rendering:optimizeQuality; fill-rule:evenodd; clip-rule:evenodd"
viewBox="0 0 327.77 348.21"
 xmlns:xlink="http://www.w3.org/1999/xlink"
 xmlns:xodm="http://www.corel.com/coreldraw/odm/2003">
 <defs>
  <style type="text/css">
   <![CDATA[
    .fil0 {fill:gray}
   ]]>
  </style>
 </defs>
 <g id="Camada_x0020_1">
  <metadata id="CorelCorpID_0Corel-Layer"/>
  <path class="fil0" d="M150.24 16.97c-12.77,9.5 -24.39,27.49 -23.89,44.38 0.64,21.94 6.37,16.32 1.38,45.83 -0.96,5.68 -0.47,10.01 -0.77,15.53 -0.88,-5.03 -4.13,-16.64 -5.72,-21.99 -0.47,-1.59 -11.03,-19.69 2.77,-12.72 0.67,-9.9 -2.63,-21.44 -5.29,-30.28 -1.33,-4.42 -3.15,-8.71 -4.95,-12.88 -2.62,-6.06 -5.48,-10.66 -9.35,-15.81l-3.09 -3.88c-17.57,-14.11 -31.42,-12.43 -53.93,-8.93 -14.74,2.29 -11.9,-6.74 -10.73,-8.46l0.4 -3.85c-11.94,5.5 -11.77,14.12 -14.48,29.01l-0.75 25.97c1.12,8.17 2.69,13.04 4.28,20.42l3.22 7.66c4.03,9.87 9.63,18.03 16.86,22.2 11.43,6.59 30.02,5.63 46.93,7.49l14.25 -0.5c-1.82,-1.77 -3.43,-3.98 -5.09,-5.47 -3.61,-3.24 -3.86,-0.06 -7.13,-3.43 -2.05,-2.11 -2.81,-5.22 -1.17,-7.79 3.59,-1.53 7.24,0.2 8.49,2.91 1.01,2.17 0.39,2.31 1.73,4.78 0.76,1.41 1.19,5.02 3.89,5.59l2.71 0.57c1.16,0.25 -0.31,-2.68 0.33,-4.78 6.19,-1.15 6.93,3 10.99,11.54 1.28,2.7 2.39,5.38 3.71,7.65 1.86,3.21 3.14,3.86 4.55,6.87 1.57,-2.04 1.47,-4.16 1.64,-6.74 0.15,-2.3 0.37,-4.65 0.58,-6.76 1.51,-14.63 3.8,-15.27 1.85,-25.8 -0.89,-4.81 1.67,-8.57 5.02,-9.63 4.26,1.73 6.02,6.18 2.78,10.89 -3.39,4.93 -2.35,-1.61 -5.07,11.22 -1.81,8.58 -3.84,19.44 -2.02,28.55 0.57,-5.15 7,-17.54 9.67,-21.78 6.88,-10.94 3.23,-5.05 4.08,-10.75 0.48,-3.25 4.78,-7.48 8.53,-6.18 1.37,1.54 0.11,-1.78 1.24,2.13 0.24,0.83 0.25,1.26 0.25,2.12 -0.05,7.93 -5.81,6.96 -9.14,6.97 -3.58,9.07 -13.22,18.78 -13.07,32.23 0.85,-0.78 0.52,-0.4 1.39,-1.46 0.32,-0.39 0.84,-1.16 1.07,-1.52 14.64,-23.02 13.34,-15.06 26.83,-24.28 3.82,-2.61 7.37,-5.5 10.07,-8.58 16.19,-18.45 18.64,-25.49 26.48,-46.88 2.18,-10.3 2.46,-14.4 0.93,-25 -1.22,-2.34 -2.21,-5.48 -3.53,-8.17 -1.31,-2.67 -2.75,-4.98 -4.26,-7.89 -4.11,-7.94 -5.84,-15.79 -6.71,-17.29 -3.63,7.32 -3.16,15.87 -12.97,16.71 -10.71,0.91 -13.67,-3.94 -25.8,0.26zm-53.71 167.73c2.33,8.06 6.9,14.44 11.23,18.75 2.32,2.3 5.51,4.78 8.56,6.87 8.5,5.82 17.28,7.75 24.93,15.71 2.4,2.5 4.41,5.15 6.44,7.81 1.19,12.61 10.22,15.91 11.63,28.64 -4.29,-1.16 -6.62,-2.72 -10.9,-4.43 -15.13,-6.08 -26.88,-7.06 -42.36,-1.25 -5.91,2.34 -14.63,7.53 -19.46,11.26 -18.04,13.94 -34.25,35.9 -44.97,55.96 -1.83,3.42 -4.43,10.36 -7.22,12.94 -0.02,3.59 -2.85,7.21 -3.84,11.25 4.86,-1.34 9.43,-4.32 14.62,-4.28 4.85,-4.1 43.96,-3.88 61.95,-11.19 43.44,-17.66 31.37,-36.19 48.01,-65.34 7.46,-1.7 7.88,4.48 11.21,10.24 11.99,20.74 3.32,21.59 -0.05,32.64 -2.3,7.54 0.02,12 2.98,17.71l1.65 -1c1.07,-5.27 3.64,-9.95 5.91,-14.47 8.74,-17.36 5.28,-19.26 9.2,-36.77 1.75,-7.82 2.63,-16.95 12.27,-15.71 4.46,3.99 4.51,7.53 7.06,14.35 9.62,35.54 52.42,43.88 83.76,45.06l24.31 -0.13 14.23 -0.85 -1.77 -3.65c-0.15,-0.19 -10.64,-15.96 -19.37,-29.2 -18.82,-28.55 -35.59,-50.38 -73.01,-45.67 -13.05,3.7 -23.83,9.63 -35.42,12.81 1.78,-4.53 7.63,-11.34 10.43,-15.21 4.5,-6.23 17.79,-21.84 25.53,-23.58 2.97,-0.67 20,-3.77 21.63,-3.72 81.61,-41.39 37.75,-65.5 72.04,-113.85 -1.34,-1.73 2.16,-2.5 -7.63,0.94l-23.21 9.37c-29.38,16.15 -33.59,19.33 -53.4,44.4 -6.81,11.61 -13.26,24.84 -13.31,41.86 0.31,7.12 1.62,10.86 2.39,16.8 -4.87,3.26 -8.79,6.48 -13.01,10 -3.53,2.95 -9.21,9.37 -12.09,10.92l-1.88 -5.55c-1.61,-1.75 -10.2,-19.51 -10.34,-22l-1.51 -2.88c-1.67,-5.32 -0.2,-14.72 0,-19.63 -3.87,5.72 -4.93,14.33 -3.69,22.85 1.54,4.46 5.99,14.31 6.04,18.35 3.48,4.06 1.35,12.21 -0.71,16.49 -1.84,3.81 -6.02,9.47 -9.52,11.16l-2.48 2.38c-2.72,5.42 -4.2,10 -5.27,16.24l-1.69 5.88c-2.73,-8.2 -7.75,-14.34 -10.43,-21.5 -0.96,-0.59 -4.83,-7.27 -8.92,-13.96 0.15,-1.73 0.37,-3.45 0.78,-5.41 2.49,-8.45 5.18,-15.1 10.41,-22.51 6.13,-8.7 14.48,-19.6 15.68,-30.25 -0.04,-13.51 -6.38,-20.84 -13.76,-25.18 -10.4,-6.13 -29.4,-11.81 -40.44,-4.55 -5.16,3.39 -6.63,5.13 -13.8,8.13 -11.32,4.73 -20.11,10.86 -19.43,25.96zm53.68 -41.68c41.43,6.98 53.89,26.59 94.05,-1.03 3.57,-2.46 6.88,-5.14 10.43,-8.27 6.13,-5.41 12.56,-19.58 19.28,-23.88 1.46,-0.93 2.57,-1.09 1.72,-3.36l-3.07 -1.3c-7.03,-0.95 -12.81,1.78 -18.81,-1.51 -3.87,-2.12 -6.55,-5.53 -9,-9.69 -5.47,-9.3 -8.4,-14.73 -21.33,-16.09 -28.13,-0.69 -38.1,25.39 -54.85,37.73 -9.45,6.96 -24.48,13.87 -28.18,26.85l9.76 0.55zm-142.32 -3.07c-4.22,8.8 -3.17,18.98 -2.72,27.3 0.69,12.78 -5.14,20.02 -5.18,32.16 9.54,1.27 18.46,-1.52 26.15,-4.65 8.53,-3.47 16.8,-4.51 26.63,-5.58 18.59,-3.29 33.13,-2.16 42.94,-19.07 10.97,-18.91 22.69,-17.22 31.56,-21.95 -2.13,-12.52 -23.97,-24.51 -38.55,-28 -10.58,-2.53 -20.04,-1.74 -31.21,-1.57 -16.16,0.25 -41.5,4.4 -49.62,21.34z"/>
 </g>
</svg>
