<?xml version="1.0" encoding="UTF-8"?>
<!DOCTYPE svg PUBLIC "-//W3C//DTD SVG 1.1//EN" "http://www.w3.org/Graphics/SVG/1.1/DTD/svg11.dtd">
<!-- Creator: CorelDRAW -->
<svg xmlns="http://www.w3.org/2000/svg" xml:space="preserve" width="53.5768mm" height="50mm" version="1.1" style="shape-rendering:geometricPrecision; text-rendering:geometricPrecision; image-rendering:optimizeQuality; fill-rule:evenodd; clip-rule:evenodd"
viewBox="0 0 351.94 328.44"
 xmlns:xlink="http://www.w3.org/1999/xlink"
 xmlns:xodm="http://www.corel.com/coreldraw/odm/2003">
 <defs>
  <style type="text/css">
   <![CDATA[
    .fil0 {fill:gray}
   ]]>
  </style>
 </defs>
 <g id="Camada_x0020_1">
  <metadata id="CorelCorpID_0Corel-Layer"/>
  <path class="fil0" d="M164.9 293.54c2.04,2.88 27.38,12.94 32.65,14.99 10.99,4.27 23.18,8.52 34.95,11.91 13.95,4.01 44.42,16.28 55.29,-0.88 6.64,-10.49 3.63,-4.88 10.32,-12.84 27.2,-32.37 43.5,-96.1 48.94,-139.8 2.35,-18.86 7.17,-72.47 3.65,-89.32 -3.42,-16.35 -29.79,-46.34 -38.21,-56.22 -3.61,-4.24 -7.8,-8.49 -11.52,-12.22 -3.35,-3.36 -7.44,-9.61 -14.87,-9.12 -4.29,0.28 -14.33,3.56 -19.13,4.83 -25.88,6.86 -24.64,3.91 -28.7,18.17 -2.96,10.41 -6.64,16.07 4.66,23.97 5.33,3.73 4.69,1.56 6.14,5.77 2.77,8.02 5.31,8.5 14.33,7.63 -4.07,7.13 0.29,11.24 5.49,14.69 4.78,3.18 11.38,5.51 17.9,7.05 6.43,1.52 3.68,1.11 7.14,5.31 2.77,3.36 2.99,3.97 2.96,9.58 -0.05,6.98 -1.7,14.63 -3.32,21.08 -4.69,18.66 -17.66,54.86 -24.43,74.43 -0.24,-10.5 3.83,-21.03 6.69,-29.45 -8.69,1.77 -21.2,16.91 -26.19,24.51 -13.65,20.79 -11.49,29.02 -14.21,35.29l-0.51 0.87c-0.66,-18.14 -4.44,-28.88 -13.18,-40.95 -24.53,-33.91 -44.23,-28.71 -78.09,-26.41 -7.1,0.48 -42.43,1.84 -50.37,-0.71l-1 -0.43c13.2,-0.64 64.3,-5.38 70.79,-11.91 -8.38,-17.89 -24.15,-35.69 -37.1,-45.86 -15.21,-11.94 -36.11,-21.63 -61.91,-20.42 -23,1.08 -41.08,11.59 -53.12,29.16 -11.98,17.47 -14.98,44.11 -4.56,65.17 9.93,20.09 25.69,29.32 46.51,36.6 19.19,6.71 24.15,12.57 34.8,27.54 7.85,11.03 19.63,23.1 30.25,31.49 41.84,33.08 63.18,11.6 100.35,16.1 -11.95,2.57 -43.97,6.48 -53.36,10.44z"/>
 </g>
</svg>
