<?xml version="1.0" encoding="UTF-8"?>
<!DOCTYPE svg PUBLIC "-//W3C//DTD SVG 1.1//EN" "http://www.w3.org/Graphics/SVG/1.1/DTD/svg11.dtd">
<!-- Creator: CorelDRAW -->
<svg xmlns="http://www.w3.org/2000/svg" xml:space="preserve" width="42.4567mm" height="50mm" version="1.1" style="shape-rendering:geometricPrecision; text-rendering:geometricPrecision; image-rendering:optimizeQuality; fill-rule:evenodd; clip-rule:evenodd"
viewBox="0 0 1012.24 1192.09"
 xmlns:xlink="http://www.w3.org/1999/xlink"
 xmlns:xodm="http://www.corel.com/coreldraw/odm/2003">
 <defs>
  <style type="text/css">
   <![CDATA[
    .fil0 {fill:gray}
   ]]>
  </style>
 </defs>
 <g id="Camada_x0020_1">
  <metadata id="CorelCorpID_0Corel-Layer"/>
  <path class="fil0" d="M311.08 923.4c17.79,8.42 48.39,76.87 5.35,137.75 -12.24,17.3 -29.95,31.97 -54.94,39.32 -34.93,10.27 -46.96,9.26 -76.43,-5.17 -19.38,-9.48 -38.63,-23.93 -50.26,-42.42 -59.15,-94.04 19.74,-168.58 71.42,-169.39 3.63,13.88 -13.53,38.95 -20.1,49.2 -16.93,26.38 -25.26,19.62 -30.85,39.69 -1.95,6.99 -7.88,22.33 -6.69,27.54 2.55,11.14 3.48,-4.95 9.51,25.96 3.49,17.9 17.5,32.79 29.92,40.75 29.23,18.73 75.82,11.24 94.15,-29.96 13.7,-30.8 21.01,-104.41 28.94,-113.27zm55.1 -86.28l1.01 3.01c4.42,16.5 2.93,11.84 16.68,26.73 6.87,7.44 14.92,22.85 21.03,28.23 14.44,12.71 13.9,8.06 17.76,30.84 6.48,38.2 19.02,87.18 24.77,123.72 5.92,37.59 16.47,47.61 51.71,48.12 2.27,-6.64 9.31,-37.61 12.66,-42.05 9.68,1.03 8.8,4.72 14.12,11.4 7.49,9.4 8.83,3.71 19.76,8.3 1.49,1.14 35.25,64.9 35.72,79.31 -23.62,3.56 -268.97,4.23 -278.45,-0.6 2.83,-3.85 22.54,-13.84 34.95,-24.34 35.94,-30.44 53.67,-71.72 64.12,-118.52 12.64,-56.63 -14.56,-98.44 -40.84,-135.5 -4.42,-6.23 -11.1,-11.49 -8.65,-19.99 1.8,-6.23 10.19,-16.78 13.63,-18.65zm312.89 -282.98c7.82,2.06 0.96,-1.29 6.43,5.26 2.47,2.95 3.83,4.5 6.32,7.34 6.05,6.88 4.84,10.18 4.72,20.58 -0.22,17.76 -0.28,35.42 -0.3,53.19 -0.01,17.88 -0.42,54.76 10.74,68.4 6.25,7.65 10.5,4.76 15.64,12.29 -5.97,9.33 -18.43,19.91 -26.73,30.69 -5.14,6.67 -7.14,10.96 -11.9,17.54 -6.66,9.19 -7.63,6.31 -18.09,11.43 -21.88,10.73 -21.73,-9.38 -27.62,-24.86 -3.09,-8.13 -5.97,-12.81 -8.51,-21.27 -2.5,-8.34 -2.67,-15.54 -4.94,-24.38 -6.38,-24.88 -19.5,-10.7 -8.32,-41.71 4.93,-13.69 16.01,-23.82 23.93,-35.26l31.95 -56.48c4.66,-9.05 2.78,-13.94 6.68,-22.75zm44.79 -36.63c16,2.09 16.05,10.64 18.56,23.8 1.87,9.81 8.46,24.5 12.65,30.98 11.31,1.36 22.58,2.87 27.13,26.42 2.46,12.73 7.15,36.59 7.88,48.75 -14.81,6.95 -21.85,10.98 -41.48,9.9 -9.01,-12.37 -13.8,-43.4 -18.34,-62.09 -6.7,-27.58 -7.28,-47.56 -6.39,-77.76zm-314.28 -223.34c-11.41,18.76 -65.37,35.12 -94.6,34.58 -111.96,-2.06 -180.4,-131.26 -110.31,-225.59 34.69,-46.68 113.13,-78.84 182.85,-38.91 57.97,33.2 87.19,99.73 67.55,163.54l-3.4 8.2c-1.47,2.49 -1.49,2.41 -2.83,4 -7.49,-2.45 -61.82,-49.46 -63.42,-51.5 -4.03,-5.14 -5,-21.6 -9.14,-30.44 -6.64,-14.15 -28.51,-29.64 -45.45,-31.01 -75.09,-6.08 -101.2,83.32 -32.11,122.43 27.35,15.49 40.37,-5.81 65.36,11.49 13.07,9.06 39.88,23.86 45.53,33.2zm120.76 80.69c-5.44,22.47 -52.18,46.05 -68.65,56.16 -17.72,10.87 -8.59,10.36 -13.47,28.46 -7.27,3.48 -50,11.86 -60.06,13.57 -19.41,3.29 -42.05,12.18 -59.95,17.17 -15.6,4.34 -44.79,11.99 -56.49,20.32 -23.76,16.92 -22.98,40.85 -27.55,49.95 -9.96,-1.13 -43.36,-30.59 -55.28,-10.47 -9.46,18.69 9.96,43.88 19.28,55.66 43.74,55.31 24.88,88.79 31.05,130.81 13.55,92.16 -3.15,69.67 -37.82,76.34 -29.43,5.66 -62.12,20.66 -84.68,36.76 -32.93,23.49 -52.1,50.75 -64.98,96.16 -3.26,11.48 -3.18,64.84 -0.73,77.16 7.57,38.01 30.48,77.27 58.28,102.76 26.44,24.24 41.66,23.83 48.91,32.74 -28.89,1.74 -52.71,4.96 -81.31,5.47 -13.93,0.25 -28.03,0.57 -41.83,2.06 -6.51,0.7 -12.77,0.93 -19.08,2.16 -10.07,1.96 -12.5,1.06 -15.99,7.69 6.5,10.04 103.78,10.67 120.22,11.16 20.23,0.6 39.12,3.48 61.03,3.43l324.65 1.33c138.49,0 355.76,3.5 495.53,-10.51 10.32,-1.03 9,-0.74 10.81,-8.48 -27.64,-16.48 -330.37,-11.91 -393.55,-17.55 -6.09,-7.86 -4.11,-7.9 -12.53,-14.65 -9.66,-7.75 -27.81,-49.49 -27.76,-59.68l12.56 -8.92 -0.78 -139.76c9.98,1.09 19.49,8.11 31.84,9.4 14.22,1.49 29.11,-2.92 41.17,-1.48 18.45,2.19 34.54,39.15 50.9,26.84 24.63,-18.52 99.17,-99.82 126.22,-131.67l56.98 -72.95c3.15,-4.59 6.21,-27.81 7.84,-34.98 1.84,-8.13 3.12,-31.07 0.62,-40.22 -3.37,-12.35 -12.9,-16.23 -18.49,-24.91 2.51,-5.61 1.17,-3.41 6.22,-8 7.23,-6.58 15.93,-11.75 23.31,-21.83 23.86,-32.61 27.49,-102.23 -17.65,-131.29 -23.9,-15.39 -70.66,-18.04 -94.28,5.57 -9.66,9.65 -10.01,17.33 -39.13,3.93 -8.53,-3.93 -33.94,-16.42 -39.4,-21.55l0.15 -45.25c-10.53,-6.78 -18,-3.96 -32.5,-14.96 -14.91,-11.31 -47.13,-31.68 -52.67,-43.4 -4.4,-9.29 -3.05,-7.73 -13.41,-10 -8.95,-1.96 -11.58,-4.45 -17.03,-8.87 -1.77,-11.63 14.1,-53.06 18.2,-71.56 6.37,-28.76 9.63,-49.87 8.51,-83.44 -1.86,-55.77 -11.5,-80.3 -35.15,-124.23 -4.74,-8.8 -4.78,-10.01 -13.02,-12.29 -14.74,22.88 -8.43,37.19 -3.42,64.77 9.19,50.62 10.62,90.28 -5.1,139.13 -5.1,15.86 -15.03,44.42 -25.81,53.39 -11.87,-1.6 -60.58,-49.8 -66.78,-57.79 3.35,-19.74 16.82,-24.31 19.04,-76.73 1.36,-32.02 -2.41,-57.92 -13.36,-82.8 -68.69,-156.15 -288.07,-150.77 -351.24,1.13 -65.57,157.65 101.37,323.07 270.01,234.5 9.12,-4.79 21.1,-12.89 27.94,-19.3 15.02,-14.07 14.71,-8.06 31.68,2.28 15.46,9.42 52.21,31.55 57.96,41.29z"/>
 </g>
</svg>
