<?xml version="1.0" encoding="UTF-8"?>
<!DOCTYPE svg PUBLIC "-//W3C//DTD SVG 1.1//EN" "http://www.w3.org/Graphics/SVG/1.1/DTD/svg11.dtd">
<!-- Creator: CorelDRAW -->
<svg xmlns="http://www.w3.org/2000/svg" xml:space="preserve" width="63.9174mm" height="50mm" version="1.1" style="shape-rendering:geometricPrecision; text-rendering:geometricPrecision; image-rendering:optimizeQuality; fill-rule:evenodd; clip-rule:evenodd"
viewBox="0 0 12176.44 9525.13"
 xmlns:xlink="http://www.w3.org/1999/xlink"
 xmlns:xodm="http://www.corel.com/coreldraw/odm/2003">
 <defs>
  <style type="text/css">
   <![CDATA[
    .fil0 {fill:gray}
   ]]>
  </style>
 </defs>
 <g id="Camada_x0020_1">
  <metadata id="CorelCorpID_0Corel-Layer"/>
  <path class="fil0" d="M6496.9 491.67c-50.31,181.87 -80.66,603.15 -115.03,784.76 -207.29,-57.34 -749.53,-47.45 -928.2,55.17l-348.64 231.37c-49.74,25.3 -74.89,19.36 -134.61,44.69 -85.14,36.16 -157.22,95.27 -242.3,136.8 -81.59,39.85 -183.78,48.06 -277.68,74.39 -274.86,77.04 -566.63,146.74 -825.68,271.39l-372.32 189.61c-105.37,51.17 -297.76,171.47 -409.83,158.65 -158.17,-18.08 -210.56,-92.93 -331.65,-20.84 -66.79,39.76 -51.84,46.6 -102.24,101.77l-222.03 278.42c-3.47,5.12 -7.85,10.15 -11.24,15.43 -28.75,44.65 -20.65,6.55 -46.86,93.69 359.82,195.99 603.7,96.47 858.4,-37.32 182.63,-95.92 573.58,-213.53 767.36,-268.49 129.41,-36.69 293.51,-28 433.64,-46.06 217.21,-27.95 371.69,-216.94 597.43,-134.76 123.77,45.07 73.71,80.79 232.34,47.91 115.01,-23.83 335.09,-62.14 458.25,-38.82 57.72,261.96 -160.75,485.27 -251.81,719.74 -80.94,208.5 -200.29,268.57 -325.64,413.03 -117.44,135.26 -199.06,299.68 -343.78,381.04 -234.39,131.81 -260.53,42.29 -645.86,341.82 -71.23,55.34 -125.77,103.69 -189.84,158.86 -194.94,168 -306.44,417.03 -528.11,549.6 -76.89,45.99 -123.2,91.25 -187.8,162.44 -124.07,136.76 -319.61,269.64 -98.91,389.84 -34.16,39.13 -77.17,114.89 -99.88,176.54 -376.55,-355.44 -607.13,-167.95 -1019.3,-281.94 53.11,-281.05 -306.4,-294.59 -477.44,-242.87 -103.02,31.15 -129.66,48.9 -240.03,70.24 -328.79,63.63 -731.68,60.26 -975.7,324.65 -69.23,75 -109.79,129.79 -84.2,233.96 110.03,447.99 852.57,21.68 1393.54,171.32 136.09,37.64 221.44,107.88 329.34,173.17 288.71,174.77 528.51,268.32 655.21,348.37 324.94,205.34 462.56,367.75 956.86,47.24 136.27,-88.36 363.29,-337.93 482.52,-383.16 218.49,118.99 125.33,189.13 379.29,104.91 -0.78,88.95 -5.72,55.76 44.88,114.51 -44.67,47.32 -57.78,50.45 -86.77,129.1 132.23,72.03 270.97,100.45 443.85,148.27l-48.41 267.33c-89.82,324.69 -154.48,390.74 -420.17,422.63 -296.33,35.55 -771.71,389.44 -990.19,580.75 -139.92,122.51 -332.58,223.78 -501.19,279.68 -226.98,-133.26 -110.76,-158.21 -488.7,-262.76 -513.99,-142.17 -1118.44,491.88 -799.39,1112.61 148.53,288.99 529.86,470.6 851.6,390.59 68.54,-17.05 89.44,-32.75 151.01,-53.36 140.9,-47.21 18.12,-10.65 153.85,26.9 104.45,28.9 413.3,166.4 459.45,-0.48 31.64,-114.38 -184.64,-229.8 -279.43,-281.45 33.34,-120.47 53.63,-101.56 82.74,-206.77 33.24,-120.21 12,-135.71 48.41,-267.31 167.83,-36.98 114.51,-53.32 333.42,-11.33 139.58,26.77 219.54,-9.89 331.82,-49.38 209.38,-73.71 377.31,-162.63 579.18,-247.77 239.46,-100.99 476.47,-228.26 666.07,-412.02 187.17,-181.42 495.19,-200.87 636.79,-428.38 60.07,-96.57 15.35,-69.57 96.62,-146.97l221.34 -244.3c236.76,-310.65 301.68,-403.58 454.01,-786.24 53.17,-133.52 68.73,-282.86 125.18,-414.04 155.74,-361.92 52.35,-491.15 127.48,-762.79 15.72,-56.77 329.82,-469.15 396.82,-569.64 261.12,-391.64 558.21,-738.01 807.9,-1149.43 68.14,-112.3 119.92,-194.22 198.88,-284 227.97,-259.2 726.27,129.9 961.69,144.1 162.35,9.75 243.16,112.47 397.25,173.78 415.01,165.11 986.88,230.66 1442.58,216.66 174.12,-5.37 417.47,32.18 577.17,-5.39 94.83,-22.29 238.15,34.61 313.34,105.69 73.36,69.36 87.4,182.2 132.72,264.59 42.56,77.46 -24.57,32.31 84.07,72.33 47.89,-173.17 25.72,-162.06 31.26,-297.58 170.31,160.75 166.12,321.55 434.76,273.37l-51.57 -330.6c-52.46,-319.3 -312.58,-355.08 -466.85,-457.91 -102.13,-68.07 134.89,-59.78 147.22,-360.43 -137.81,-1.24 -91.88,58.79 -193.13,117.77 -187.04,108.97 -352.87,43.02 -543.56,28.5 -110.62,-8.46 -186.31,-11.18 -292.57,-22.5 -357.17,-38.12 -650.49,-161.24 -930.89,-196.47 -437.76,-54.98 -470.6,-109.73 -836.19,-401.64 -90.28,-72.09 -144.97,-113.86 -226.53,-191.49 -67.3,-64.03 -140.59,-176.75 -213.42,-218.89 -150.23,-86.93 -159.81,-18.61 -307.15,-145.75 -173.89,-150.06 -905.46,-229.73 -814.7,-557.83 29.15,-105.33 164.67,-120.85 195.23,-271.18 56.52,-278.32 254.34,-570.54 82.87,-845.87 -322.52,-517.86 -1106.36,-224.47 -1228.28,216.28z"/>
 </g>
</svg>
