<?xml version="1.0" encoding="UTF-8"?>
<!DOCTYPE svg PUBLIC "-//W3C//DTD SVG 1.1//EN" "http://www.w3.org/Graphics/SVG/1.1/DTD/svg11.dtd">
<!-- Creator: CorelDRAW -->
<svg xmlns="http://www.w3.org/2000/svg" xml:space="preserve" width="7.9537mm" height="7.9569mm" version="1.1" style="shape-rendering:geometricPrecision; text-rendering:geometricPrecision; image-rendering:optimizeQuality; fill-rule:evenodd; clip-rule:evenodd"
viewBox="0 0 50.79 50.81"
 xmlns:xlink="http://www.w3.org/1999/xlink"
 xmlns:xodm="http://www.corel.com/coreldraw/odm/2003">
 <defs>
  <style type="text/css">
   <![CDATA[
    .fil0 {fill:red}
   ]]>
  </style>
 </defs>
 <g id="Camada_x0020_1">
  <metadata id="CorelCorpID_0Corel-Layer"/>
  <path class="fil0" d="M50.63 14.84c0.12,0.94 0.11,2.08 0.12,3 0.03,1.63 0.04,3.26 0.04,4.89 0.01,2.6 -0,5.21 -0,7.81 0,2.06 -0.13,4.11 -0.16,6.17 -0.01,0.37 -0.07,0.71 -0.09,1.06 -0.05,1.57 -0.73,4.05 -1.37,5.49 -0.61,1.36 -1.41,2.43 -2.46,3.47 -2.22,2.22 -4.51,3.12 -7.56,3.65 -0.52,0.09 -0.97,0.15 -1.47,0.16 -0.27,0.06 -0.54,0.09 -0.83,0.1 -0.28,0.01 -0.55,-0.01 -0.75,-0.02 -0.44,0.07 -0.93,0.1 -1.46,0.1 -1.38,-0 -2.75,0.08 -4.13,0.08l-10.24 0c-2.06,0 -4.11,-0.13 -6.17,-0.16 -0.37,-0.01 -0.71,-0.07 -1.06,-0.09 -0.47,-0.02 -0.94,-0.1 -1.4,-0.18 -1.42,-0.25 -2.77,-0.6 -4.09,-1.19 -0.64,-0.29 -1.22,-0.65 -1.8,-1.03 -0.22,-0.15 -0.42,-0.3 -0.62,-0.47l-0.99 -0.89 -0.06 -0.06c-0.24,-0.24 -0.47,-0.45 -0.69,-0.71 -0.11,-0.13 -0.2,-0.26 -0.3,-0.39 -1.63,-2.02 -2.66,-5.1 -2.83,-7.67l-0.01 -0.12 -0.25 -7.24 0 -10.3c0,-1.38 0.08,-2.75 0.08,-4.13 -0,-3.59 0.54,-7.34 2.57,-10.39 0.15,-0.22 0.3,-0.42 0.47,-0.63 0.78,-0.91 1.55,-1.75 2.55,-2.43 2.03,-1.38 4.73,-2.28 7.17,-2.45 5.88,-0.41 11.78,-0.26 17.66,-0.26 1.38,0 2.75,0.08 4.13,0.08 3.61,-0 8.21,0.62 11.02,3.04l0.11 0.1 2.15 2.21 0.17 0.25c0.4,0.6 0.78,1.21 1.08,1.87 0.65,1.44 1.26,3.72 1.37,5.3l0.1 1.96zm-47.2 15.7l0 -10.24c0,-1.48 0.08,-2.71 0.08,-4.13 -0,-2.9 0.38,-6.06 2,-8.49 0.1,-0.14 0.1,-0.15 0.21,-0.28 0.57,-0.66 1.16,-1.34 1.89,-1.83 1.51,-1.02 3.63,-1.74 5.49,-1.86 5.7,-0.4 11.7,-0.25 17.43,-0.25 1.48,0 2.71,0.08 4.13,0.08 2.74,-0 6.72,0.43 8.77,2.21l1.83 1.89c0.29,0.43 0.58,0.89 0.79,1.36 0.43,0.96 0.99,2.94 1.07,4.13l0.1 2.05c0.21,1.34 0.15,13.75 0.15,15.38 0,2.1 -0.13,4.12 -0.16,6.12 -0.01,0.39 -0.07,0.53 -0.08,0.99 -0.04,1.13 -0.66,3.28 -1.08,4.21 -0.45,0.99 -1.01,1.71 -1.75,2.46 -1.64,1.64 -3.26,2.27 -5.73,2.7 -1.02,0.18 -0.84,0.08 -1.35,0.14 -0.25,0.03 -0.16,0.07 -0.5,0.08 -0.35,0.01 -0.71,-0.04 -1.06,0.01 -0.33,0.05 -0.56,0.07 -1.01,0.07 -1.42,-0 -2.65,0.08 -4.13,0.08l-10.24 0c-2.1,0 -4.12,-0.13 -6.12,-0.16 -0.39,-0.01 -0.53,-0.07 -0.99,-0.08 -0.25,-0.01 -0.66,-0.08 -0.94,-0.13 -1.27,-0.22 -2.28,-0.5 -3.27,-0.94 -0.46,-0.2 -0.89,-0.48 -1.31,-0.76 -0.14,-0.1 -0.15,-0.1 -0.28,-0.21l-0.87 -0.78c-0.17,-0.17 -0.35,-0.32 -0.49,-0.5 -0.12,-0.15 -0.09,-0.14 -0.21,-0.29 -1.21,-1.46 -2,-3.94 -2.12,-5.8l-0.25 -7.19zm8.18 -5.78c0,2.52 0.19,4.37 1.29,6.55 0.99,1.96 1.92,3.23 3.56,4.62 2.2,1.87 5.26,3.28 8.28,3.28 2.52,0 4.37,-0.19 6.55,-1.29 0.41,-0.2 0.7,-0.34 1.08,-0.57 1.12,-0.68 1.88,-1.25 2.8,-2.16l0.74 -0.82c0.27,-0.32 0.5,-0.56 0.74,-0.91 1.93,-2.92 2.54,-4.84 2.54,-8.69 0,-2.77 -1.12,-5.22 -2.51,-7.32 -0.47,-0.71 -1.64,-2.03 -2.33,-2.54 -1.33,-1 -1.4,-1.14 -3.01,-1.95 -3.93,-1.97 -9.18,-1.74 -12.92,0.54 -2.53,1.54 -4.16,3.32 -5.5,5.98 -0.63,1.24 -1.32,3.43 -1.32,5.29zm4.87 0.66c0,-4.92 4,-8.92 8.92,-8.92 4.92,0 8.92,4 8.92,8.92 0,4.92 -4,8.92 -8.92,8.92 -4.92,0 -8.92,-4 -8.92,-8.92zm19.99 -14.37c0,1.01 0.41,1.78 0.93,2.29 2.11,2.11 5.6,0.7 5.6,-2.38 0,-2.96 -4.23,-4.52 -6.06,-1.52 -0.27,0.44 -0.46,0.99 -0.46,1.6z"/>
 </g>
</svg>
