<?xml version="1.0" encoding="UTF-8"?>
<!DOCTYPE svg PUBLIC "-//W3C//DTD SVG 1.1//EN" "http://www.w3.org/Graphics/SVG/1.1/DTD/svg11.dtd">
<!-- Creator: CorelDRAW -->
<svg xmlns="http://www.w3.org/2000/svg" xml:space="preserve" width="7.4617mm" height="7.4648mm" version="1.1" style="shape-rendering:geometricPrecision; text-rendering:geometricPrecision; image-rendering:optimizeQuality; fill-rule:evenodd; clip-rule:evenodd"
viewBox="0 0 44.53 44.54"
 xmlns:xlink="http://www.w3.org/1999/xlink"
 xmlns:xodm="http://www.corel.com/coreldraw/odm/2003">
 <defs>
  <style type="text/css">
   <![CDATA[
    .fil0 {fill:red}
   ]]>
  </style>
 </defs>
 <g id="Camada_x0020_1">
  <metadata id="CorelCorpID_0Corel-Layer"/>
  <path class="fil0" d="M-0 27.47l0 -10.38c0,-1.5 0.09,-2.75 0.08,-4.18 -0,-2.93 0.39,-6.14 2.02,-8.6 0.1,-0.15 0.1,-0.16 0.21,-0.29 0.58,-0.67 1.17,-1.36 1.91,-1.86 1.53,-1.04 3.68,-1.76 5.56,-1.89 5.78,-0.4 11.85,-0.25 17.66,-0.25 1.5,0 2.75,0.09 4.18,0.08 2.77,-0 6.81,0.44 8.89,2.24l1.86 1.91c0.29,0.43 0.59,0.9 0.8,1.37 0.44,0.98 1,2.98 1.09,4.18l0.1 2.07c0.21,1.35 0.15,13.94 0.15,15.58 0,2.13 -0.13,4.17 -0.16,6.2 -0.01,0.39 -0.07,0.54 -0.09,1 -0.04,1.15 -0.67,3.33 -1.09,4.27 -0.45,1.01 -1.02,1.74 -1.78,2.49 -1.66,1.66 -3.3,2.3 -5.8,2.73 -1.03,0.18 -0.85,0.08 -1.37,0.14 -0.25,0.03 -0.16,0.07 -0.51,0.08 -0.36,0.01 -0.72,-0.04 -1.07,0.01 -0.34,0.05 -0.57,0.07 -1.02,0.07 -1.44,-0 -2.69,0.08 -4.18,0.08l-10.38 0c-2.13,0 -4.17,-0.13 -6.2,-0.16 -0.39,-0.01 -0.54,-0.07 -1,-0.08 -0.25,-0.01 -0.67,-0.09 -0.95,-0.13 -1.29,-0.22 -2.31,-0.5 -3.31,-0.96 -0.46,-0.21 -0.9,-0.49 -1.32,-0.77 -0.15,-0.1 -0.16,-0.1 -0.29,-0.21l-0.88 -0.79c-0.17,-0.17 -0.35,-0.33 -0.5,-0.5 -0.12,-0.15 -0.09,-0.14 -0.21,-0.29 -1.23,-1.48 -2.02,-4 -2.15,-5.88l-0.25 -7.28zm8.28 -5.86c0,2.55 0.2,4.43 1.31,6.64 1,1.98 1.95,3.27 3.6,4.68 2.23,1.89 5.33,3.32 8.39,3.32 2.55,0 4.43,-0.2 6.64,-1.31 0.41,-0.21 0.71,-0.34 1.09,-0.58 1.13,-0.69 1.91,-1.26 2.83,-2.19l0.75 -0.84c0.28,-0.33 0.51,-0.56 0.75,-0.93 1.95,-2.96 2.58,-4.91 2.58,-8.8 0,-2.81 -1.14,-5.29 -2.54,-7.41 -0.48,-0.72 -1.66,-2.06 -2.36,-2.58 -1.35,-1.02 -1.42,-1.16 -3.05,-1.97 -3.98,-2 -9.3,-1.76 -13.09,0.55 -2.56,1.56 -4.22,3.36 -5.57,6.06 -0.63,1.26 -1.34,3.47 -1.34,5.36zm4.94 0.67c0,-4.98 4.05,-9.04 9.04,-9.04 4.98,0 9.04,4.05 9.04,9.04 0,4.98 -4.05,9.04 -9.04,9.04 -4.98,0 -9.04,-4.05 -9.04,-9.04zm20.25 -14.56c0,1.02 0.42,1.8 0.94,2.32 2.13,2.14 5.67,0.71 5.67,-2.41 0,-3 -4.29,-4.58 -6.14,-1.54 -0.27,0.45 -0.47,1 -0.47,1.62z"/>
 </g>
</svg>
